<svg width="146" height="54" viewBox="0 0 146 54" fill="none" xmlns="http://www.w3.org/2000/svg">
<path d="M3.98128 32.3952C3.98128 34.6972 4.66858 36.5758 6.04318 38.0311C7.41778 39.4599 9.2071 40.1743 11.4112 40.1743C13.4732 40.1743 15.0847 39.8171 16.246 39.1027C17.4073 38.3883 18.2368 37.1579 18.7345 35.4116H21.3652C20.6542 37.8194 19.4455 39.6319 17.7391 40.849C16.0327 42.0397 13.9234 42.635 11.4112 42.635C8.25913 42.635 5.79433 41.6296 4.01683 39.6186C2.23934 37.6077 1.35059 34.9618 1.35059 31.6808C1.35059 28.4263 2.26304 25.7935 4.08793 23.7826C5.93654 21.7452 8.37763 20.7265 11.4112 20.7265C14.7055 20.7265 17.2651 21.7452 19.09 23.7826C20.915 25.7935 21.8273 28.6644 21.8273 32.3952H3.98128ZM19.1966 30.1726C18.8886 27.95 18.0591 26.2301 16.7082 25.013C15.3573 23.7958 13.639 23.1873 11.5534 23.1873C9.49148 23.1873 7.76143 23.8355 6.36313 25.132C4.96484 26.4021 4.17089 28.0823 3.98128 30.1726H19.1966ZM32.899 42.0794C31.8324 42.2381 30.8726 42.3175 30.0194 42.3175C28.1708 42.3175 26.8792 41.9603 26.1444 41.2459C25.4098 40.505 25.0424 39.2085 25.0424 37.3563V23.5842H21.0608V21.3616H25.0424V14.8525H27.6731V21.3616H32.899V23.5842H27.6731V37.1976C27.6731 38.1766 27.8508 38.8645 28.2064 39.2614C28.5855 39.6583 29.2965 39.8568 30.3394 39.8568C30.9318 39.8568 31.4296 39.8435 31.8324 39.8171C32.2353 39.7642 32.5908 39.698 32.899 39.6186V42.0794ZM53.2535 42L47.6366 25.4892L42.1619 42H39.3179L31.9947 21.3616H34.803L40.6688 38.2295L46.2502 21.3616H49.0942L54.7821 38.1501L60.719 21.3616H63.563L56.0976 42H53.2535Z" fill="#171717"/>
<path d="M72.2344 53.5772V0.421875" stroke="#171717" stroke-width="0.708738"/>
<path d="M76.8966 17.9997V7.87891H84.0573V8.4459H77.4806V12.4715H83.7907V13.0385H77.4806V17.4327H84.1335V17.9997H76.8966ZM87.6052 17.9997L84.393 10.7422H85.0532L87.8972 17.3477L90.741 10.7422H91.4012L88.1892 17.9997H87.6052ZM98.7863 15.59C98.5158 16.5066 98.0966 17.1776 97.5296 17.6028C96.9626 18.0186 96.2434 18.2265 95.3709 18.2265C94.2621 18.2265 93.3816 17.8769 92.7304 17.1776C92.0783 16.4688 91.7523 15.5191 91.7523 14.3284C91.7523 13.6953 91.8795 13.0905 92.1339 12.5141C92.3963 11.9282 92.8021 11.451 93.352 11.0824C93.9029 10.7044 94.58 10.5154 95.3835 10.5154C96.4422 10.5154 97.2922 10.8651 97.9353 11.5644C98.5874 12.2636 98.9305 13.2464 98.9645 14.5127H92.3363C92.3703 15.4955 92.6623 16.2657 93.2123 16.8232C93.7631 17.3807 94.5039 17.6595 95.4345 17.6595C96.1206 17.6595 96.6831 17.5036 97.1229 17.1917C97.5717 16.8799 97.9318 16.346 98.2023 15.59H98.7863ZM98.3044 13.9457C98.1942 13.0385 97.8726 12.3345 97.3388 11.8337C96.8059 11.3328 96.1287 11.0824 95.3073 11.0824C94.512 11.0824 93.8518 11.3328 93.3269 11.8337C92.8021 12.3251 92.4724 13.0291 92.3363 13.9457H98.3044ZM99.8951 17.9997V10.7422H100.479V12.4574H100.504C100.725 11.8242 101.068 11.3423 101.533 11.0115C101.998 10.6808 102.549 10.5154 103.183 10.5154C103.285 10.5154 103.37 10.5249 103.438 10.5438C103.505 10.5532 103.585 10.5721 103.679 10.6005V11.2525C103.594 11.2242 103.501 11.2053 103.399 11.1958C103.306 11.1769 103.175 11.1675 103.006 11.1675C102.27 11.1675 101.664 11.4368 101.19 11.9754C100.717 12.5141 100.479 13.2086 100.479 14.0591V17.9997H99.8951ZM104.333 20.6079V20.0409H104.981C105.251 20.0409 105.455 20.0125 105.59 19.9558C105.726 19.9086 105.835 19.8282 105.921 19.7148C106.014 19.6109 106.132 19.403 106.276 19.0912L106.771 17.9997L103.482 10.7422H104.143L107.063 17.2768L109.742 10.7422H110.403L106.809 19.3038C106.606 19.8046 106.377 20.1448 106.124 20.3244C105.878 20.5134 105.552 20.6079 105.146 20.6079H104.333ZM114.155 18.0564C113.994 18.0942 113.85 18.1178 113.723 18.1273C113.596 18.1367 113.41 18.1414 113.164 18.1414C112.547 18.1414 112.128 18.0186 111.907 17.7729C111.687 17.5178 111.577 17.0027 111.577 16.2279V11.3092H110.104V10.7422H111.577V8.28998H112.162V10.7422H114.091V11.3092H112.162V16.5397C112.162 16.9744 112.263 17.2579 112.466 17.3902C112.678 17.513 112.97 17.5745 113.342 17.5745C113.52 17.5745 113.791 17.5461 114.155 17.4894V18.0564ZM120.699 17.9997V13.4921C120.699 12.6416 120.504 12.0274 120.115 11.6494C119.725 11.2714 119.116 11.0824 118.287 11.0824C117.465 11.0824 116.801 11.3281 116.293 11.8195C115.785 12.3014 115.531 12.9346 115.531 13.7189V17.9997H114.947V7.87891H115.531V12.188H115.557C115.828 11.6305 116.2 11.2147 116.674 10.9407C117.148 10.6572 117.69 10.5154 118.299 10.5154C119.298 10.5154 120.043 10.7517 120.534 11.2242C121.033 11.6872 121.283 12.4243 121.283 13.4354V17.9997H120.699ZM122.76 9.38144V7.87891H123.344V9.38144H122.76ZM122.76 17.9997V10.7422H123.344V17.9997H122.76ZM130.569 17.9997V13.563C130.569 12.6936 130.373 12.0652 129.985 11.6778C129.603 11.2809 128.994 11.0824 128.156 11.0824C127.326 11.0824 126.658 11.3234 126.15 11.8053C125.65 12.2873 125.401 12.9488 125.401 13.7898V17.9997H124.817V10.7422H125.401V12.188H125.426C125.697 11.6305 126.069 11.2147 126.543 10.9407C127.018 10.6572 127.559 10.5154 128.169 10.5154C129.193 10.5154 129.946 10.7564 130.429 11.2383C130.911 11.7203 131.153 12.4337 131.153 13.3787V17.9997H130.569ZM138.8 16.1712H138.774C138.495 16.757 138.097 17.1965 137.581 17.4894C137.064 17.7729 136.447 17.9147 135.727 17.9147C134.652 17.9147 133.793 17.5839 133.15 16.9224C132.515 16.2515 132.198 15.3348 132.198 14.1725C132.198 13.048 132.519 12.1597 133.163 11.5077C133.815 10.8462 134.674 10.5154 135.739 10.5154C136.477 10.5154 137.103 10.6572 137.619 10.9407C138.144 11.2242 138.529 11.6447 138.774 12.2022L138.8 12.2164V10.7422H139.384V17.702C139.384 18.8171 139.096 19.6629 138.521 20.2393C137.945 20.8252 137.047 21.1181 135.829 21.1181C134.796 21.1181 134.005 20.9291 133.455 20.5512C132.905 20.1732 132.574 19.5495 132.464 18.6801H133.048C133.133 19.3416 133.403 19.8188 133.861 20.1117C134.326 20.4047 134.983 20.5512 135.829 20.5512C137.809 20.5512 138.8 19.6109 138.8 17.7304V16.1712ZM132.782 14.1442C132.782 15.1931 133.04 15.9916 133.556 16.5397C134.081 17.0783 134.83 17.3477 135.803 17.3477C136.743 17.3477 137.475 17.0642 138 16.4972C138.533 15.9302 138.8 15.1411 138.8 14.13C138.8 13.1661 138.529 12.4196 137.987 11.8904C137.454 11.3517 136.701 11.0824 135.727 11.0824C134.872 11.0824 134.166 11.3659 133.607 11.9329C133.057 12.4904 132.782 13.2275 132.782 14.1442ZM79.6009 32.9997V23.4459H75.9443V22.8789H83.8415V23.4459H80.1849V32.9997H79.6009ZM89.599 30.59C89.3281 31.5066 88.909 32.1776 88.342 32.6028C87.7748 33.0186 87.0554 33.2265 86.1836 33.2265C85.0747 33.2265 84.1945 32.8769 83.5427 32.1776C82.891 31.4688 82.5651 30.5191 82.5651 29.3284C82.5651 28.6953 82.692 28.0905 82.946 27.5141C83.2084 26.9282 83.6147 26.451 84.1649 26.0824C84.715 25.7044 85.3921 25.5154 86.1963 25.5154C87.2543 25.5154 88.105 25.8651 88.7483 26.5644C89.4 27.2636 89.7432 28.2464 89.7764 29.5127H83.1491C83.183 30.4955 83.475 31.2657 84.0252 31.8232C84.5754 32.3807 85.316 32.6595 86.2471 32.6595C86.9327 32.6595 87.4955 32.5036 87.9357 32.1917C88.3843 31.8799 88.7441 31.346 89.0148 30.59H89.599ZM89.1164 28.9457C89.0064 28.0385 88.6848 27.3345 88.1516 26.8337C87.6182 26.3328 86.9411 26.0824 86.1201 26.0824C85.3244 26.0824 84.6642 26.3328 84.1394 26.8337C83.6147 27.3251 83.2846 28.0291 83.1491 28.9457H89.1164ZM97.4239 30.4624C97.2546 31.3507 96.8614 32.0358 96.2434 32.5178C95.6343 32.9903 94.8846 33.2265 93.996 33.2265C93.3359 33.2265 92.7268 33.08 92.1679 32.7871C91.6179 32.4941 91.1728 32.0594 90.8342 31.483C90.4956 30.9066 90.3263 30.2262 90.3263 29.4418C90.3263 28.2701 90.6694 27.3251 91.3555 26.6069C92.0407 25.8792 92.9212 25.5154 93.996 25.5154C94.8935 25.5154 95.6594 25.7611 96.2944 26.2525C96.9375 26.7439 97.2842 27.3345 97.3352 28.0244H96.7512C96.7002 27.5235 96.4082 27.0747 95.8752 26.6778C95.3423 26.2809 94.7153 26.0824 93.996 26.0824C93.0905 26.0824 92.3497 26.3895 91.7738 27.0038C91.1987 27.618 90.9112 28.4307 90.9112 29.4418C90.9112 29.9521 91.025 30.4577 91.2534 30.9585C91.4818 31.4499 91.8293 31.8563 92.2951 32.1776C92.76 32.4989 93.3269 32.6595 93.996 32.6595C94.7574 32.6595 95.3889 32.4563 95.8878 32.05C96.3956 31.6436 96.7127 31.1145 96.8399 30.4624H97.4239ZM104.221 32.9997V28.4921C104.221 27.6416 104.026 27.0274 103.637 26.6494C103.248 26.2714 102.638 26.0824 101.808 26.0824C100.987 26.0824 100.323 26.3281 99.8154 26.8195C99.3076 27.3014 99.0532 27.9346 99.0532 28.7189V32.9997H98.4692V22.8789H99.0532V27.188H99.0792C99.3497 26.6305 99.7223 26.2147 100.196 25.9407C100.67 25.6572 101.212 25.5154 101.821 25.5154C102.82 25.5154 103.565 25.7517 104.056 26.2242C104.555 26.6872 104.805 27.4243 104.805 28.4354V32.9997H104.221ZM111.983 32.9997V28.563C111.983 27.6936 111.787 27.0652 111.399 26.6778C111.017 26.2809 110.408 26.0824 109.571 26.0824C108.74 26.0824 108.072 26.3234 107.564 26.8053C107.064 27.2873 106.815 27.9488 106.815 28.7898V32.9997H106.231V25.7422H106.815V27.188H106.84C107.111 26.6305 107.484 26.2147 107.957 25.9407C108.432 25.6572 108.973 25.5154 109.583 25.5154C110.607 25.5154 111.36 25.7564 111.843 26.2383C112.325 26.7203 112.567 27.4337 112.567 28.3787V32.9997H111.983ZM114.044 24.3814V22.8789H114.628V24.3814H114.044ZM114.044 32.9997V25.7422H114.628V32.9997H114.044ZM122.817 30.4624C122.648 31.3507 122.254 32.0358 121.636 32.5178C121.027 32.9903 120.278 33.2265 119.389 33.2265C118.728 33.2265 118.119 33.08 117.56 32.7871C117.01 32.4941 116.566 32.0594 116.227 31.483C115.889 30.9066 115.72 30.2262 115.72 29.4418C115.72 28.2701 116.063 27.3251 116.748 26.6069C117.434 25.8792 118.314 25.5154 119.389 25.5154C120.286 25.5154 121.052 25.7611 121.687 26.2525C122.33 26.7439 122.677 27.3345 122.728 28.0244H122.144C122.093 27.5235 121.801 27.0747 121.268 26.6778C120.735 26.2809 120.109 26.0824 119.389 26.0824C118.483 26.0824 117.743 26.3895 117.167 27.0038C116.591 27.618 116.304 28.4307 116.304 29.4418C116.304 29.9521 116.418 30.4577 116.647 30.9585C116.875 31.4499 117.222 31.8563 117.687 32.1776C118.153 32.4989 118.72 32.6595 119.389 32.6595C120.151 32.6595 120.781 32.4563 121.281 32.05C121.789 31.6436 122.106 31.1145 122.233 30.4624H122.817ZM130.782 33.028C130.681 33.0753 130.57 33.1036 130.451 33.1131C130.333 33.132 130.206 33.1414 130.071 33.1414C129.808 33.1414 129.609 33.0564 129.474 32.8863C129.339 32.7162 129.271 32.3618 129.271 31.8232V31.5539H129.246C128.974 32.102 128.577 32.5178 128.052 32.8013C127.527 33.0847 126.893 33.2265 126.147 33.2265C125.242 33.2265 124.569 33.0375 124.128 32.6595C123.697 32.2721 123.481 31.724 123.481 31.0152C123.481 30.4104 123.672 29.9285 124.052 29.5694C124.442 29.2103 125.06 28.9977 125.906 28.9315L128.204 28.7614C128.56 28.752 128.814 28.6858 128.966 28.563C129.118 28.4307 129.195 28.1519 129.195 27.7267C129.195 27.1314 129 26.7108 128.611 26.4651C128.221 26.21 127.616 26.0824 126.795 26.0824C126 26.0824 125.416 26.2242 125.043 26.5077C124.67 26.7912 124.442 27.2825 124.357 27.9818H123.773C123.866 27.0652 124.15 26.4273 124.624 26.0682C125.107 25.6997 125.83 25.5154 126.795 25.5154C127.862 25.5154 128.623 25.6855 129.081 26.0257C129.546 26.3659 129.779 26.8904 129.779 27.5991V31.7807C129.779 32.1209 129.808 32.3382 129.867 32.4327C129.926 32.5272 130.041 32.5745 130.21 32.5745C130.389 32.5745 130.578 32.5367 130.782 32.4611V33.028ZM129.195 28.9457H129.169C129.008 29.1536 128.665 29.2812 128.141 29.3284L125.804 29.5127C124.645 29.5978 124.065 30.0986 124.065 31.0152C124.065 32.102 124.772 32.6501 126.186 32.6595C127.057 32.6595 127.777 32.4422 128.344 32.0075C128.912 31.5728 129.195 31.0105 129.195 30.3207V28.9457ZM131.439 32.9997V22.8789H132.023V32.9997H131.439ZM85.5301 46.9997L82.6099 37.7861H82.5846L79.6644 46.9997H78.9279L75.9443 36.8789H76.6046L79.2962 46.0925H79.3216L82.2291 36.8789H82.9654L85.8729 46.0925H85.8983L88.5899 36.8789H89.2501L86.2665 46.9997H85.5301ZM89.5421 46.9997V39.7422H90.1266V41.4574H90.1517C90.372 40.8242 90.7142 40.3423 91.1799 40.0115C91.6457 39.6808 92.1957 39.5154 92.8307 39.5154C92.9319 39.5154 93.017 39.5249 93.0842 39.5438C93.1523 39.5532 93.2329 39.5721 93.326 39.6005V40.2525C93.2409 40.2242 93.1478 40.2053 93.0466 40.1958C92.9534 40.1769 92.8218 40.1675 92.6525 40.1675C91.9162 40.1675 91.3116 40.4368 90.8369 40.9754C90.363 41.5141 90.1266 42.2086 90.1266 43.0591V46.9997H89.5421ZM94.0569 38.3814V36.8789H94.6409V38.3814H94.0569ZM94.0569 46.9997V39.7422H94.6409V46.9997H94.0569ZM99.3255 47.0564C99.1651 47.0942 99.0209 47.1178 98.8937 47.1273C98.7674 47.1367 98.5811 47.1414 98.3357 47.1414C97.7177 47.1414 97.2985 47.0186 97.0782 46.7729C96.8587 46.5178 96.7485 46.0027 96.7485 45.2279V40.3092H95.276V39.7422H96.7485V37.29H97.3325V39.7422H99.2619V40.3092H97.3325V45.5397C97.3325 45.9744 97.4337 46.2579 97.6371 46.3902C97.8485 46.513 98.1405 46.5745 98.5131 46.5745C98.6913 46.5745 98.9618 46.5461 99.3255 46.4894V47.0564ZM100.169 38.3814V36.8789H100.753V38.3814H100.169ZM100.169 46.9997V39.7422H100.753V46.9997H100.169ZM107.978 46.9997V42.563C107.978 41.6936 107.783 41.0652 107.394 40.6778C107.012 40.2809 106.403 40.0824 105.565 40.0824C104.736 40.0824 104.067 40.3234 103.559 40.8053C103.06 41.2873 102.81 41.9488 102.81 42.7898V46.9997H102.226V39.7422H102.81V41.188H102.836C103.106 40.6305 103.479 40.2147 103.953 39.9407C104.427 39.6572 104.968 39.5154 105.578 39.5154C106.602 39.5154 107.355 39.7564 107.838 40.2383C108.32 40.7203 108.562 41.4337 108.562 42.3787V46.9997H107.978ZM116.21 45.1712H116.184C115.904 45.757 115.506 46.1965 114.99 46.4894C114.474 46.7729 113.856 46.9147 113.136 46.9147C112.062 46.9147 111.203 46.5839 110.559 45.9224C109.924 45.2515 109.607 44.3348 109.607 43.1725C109.607 42.048 109.929 41.1597 110.572 40.5077C111.224 39.8462 112.083 39.5154 113.149 39.5154C113.886 39.5154 114.512 39.6572 115.028 39.9407C115.553 40.2242 115.938 40.6447 116.184 41.2022L116.21 41.2164V39.7422H116.794V46.702C116.794 47.8171 116.505 48.6629 115.93 49.2393C115.354 49.8252 114.457 50.1181 113.238 50.1181C112.206 50.1181 111.414 49.9291 110.864 49.5512C110.314 49.1732 109.983 48.5495 109.873 47.6801H110.457C110.542 48.3416 110.813 48.8188 111.271 49.1117C111.735 49.4047 112.392 49.5512 113.238 49.5512C115.219 49.5512 116.21 48.6109 116.21 46.7304V45.1712ZM110.191 43.1442C110.191 44.1931 110.449 44.9916 110.965 45.5397C111.49 46.0783 112.24 46.3477 113.212 46.3477C114.152 46.3477 114.885 46.0642 115.41 45.4972C115.943 44.9302 116.21 44.1411 116.21 43.13C116.21 42.1661 115.938 41.4196 115.396 40.8904C114.863 40.3517 114.11 40.0824 113.136 40.0824C112.282 40.0824 111.575 40.3659 111.016 40.9329C110.466 41.4904 110.191 42.2275 110.191 43.1442Z" fill="#171717"/>
<path d="M76.8963 18.0001H76.8068V18.1001H76.8963V18.0001ZM76.8963 7.8793V7.7793H76.8068V7.8793H76.8963ZM84.057 7.8793H84.1466V7.7793H84.057V7.8793ZM84.057 8.44629V8.54629H84.1466V8.44629H84.057ZM77.4803 8.44629V8.34629H77.3907V8.44629H77.4803ZM77.4803 12.4719H77.3907V12.5719H77.4803V12.4719ZM83.7905 12.4719H83.88V12.3719H83.7905V12.4719ZM83.7905 13.0389V13.1389H83.88V13.0389H83.7905ZM77.4803 13.0389V12.9389H77.3907V13.0389H77.4803ZM77.4803 17.4331H77.3907V17.5331H77.4803V17.4331ZM84.1333 17.4331H84.2228V17.3331H84.1333V17.4331ZM84.1333 18.0001V18.1001H84.2228V18.0001H84.1333ZM76.9859 18.0001V7.8793H76.8068V18.0001H76.9859ZM76.8963 7.9793H84.057V7.7793H76.8963V7.9793ZM83.9675 7.8793V8.44629H84.1466V7.8793H83.9675ZM84.057 8.34629H77.4803V8.54629H84.057V8.34629ZM77.3907 8.44629V12.4719H77.5699V8.44629H77.3907ZM77.4803 12.5719H83.7905V12.3719H77.4803V12.5719ZM83.7009 12.4719V13.0389H83.88V12.4719H83.7009ZM83.7905 12.9389H77.4803V13.1389H83.7905V12.9389ZM77.3907 13.0389V17.4331H77.5699V13.0389H77.3907ZM77.4803 17.5331H84.1333V17.3331H77.4803V17.5331ZM84.0437 17.4331V18.0001H84.2228V17.4331H84.0437ZM84.1333 17.9001H76.8963V18.1001H84.1333V17.9001ZM87.6049 18.0001L87.5247 18.0444L87.5493 18.1001H87.6049V18.0001ZM84.3928 10.7426V10.6426H84.2485L84.3124 10.7869L84.3928 10.7426ZM85.053 10.7426L85.1337 10.6993L85.1093 10.6426H85.053V10.7426ZM87.8969 17.3481L87.8162 17.3914L87.8969 17.5789L87.9777 17.3914L87.8969 17.3481ZM90.7408 10.7426V10.6426H90.6844L90.6602 10.6993L90.7408 10.7426ZM91.4009 10.7426L91.4815 10.7869L91.5451 10.6426H91.4009V10.7426ZM88.1889 18.0001V18.1001H88.2446L88.2693 18.0444L88.1889 18.0001ZM87.6853 17.9558L84.473 10.6983L84.3124 10.7869L87.5247 18.0444L87.6853 17.9558ZM84.3928 10.8426H85.053V10.6426H84.3928V10.8426ZM84.9723 10.7859L87.8162 17.3914L87.9777 17.3047L85.1337 10.6993L84.9723 10.7859ZM87.9777 17.3914L90.8214 10.7859L90.6602 10.6993L87.8162 17.3047L87.9777 17.3914ZM90.7408 10.8426H91.4009V10.6426H90.7408V10.8426ZM91.3212 10.6983L88.1087 17.9558L88.2693 18.0444L91.4815 10.7869L91.3212 10.6983ZM88.1889 17.9001H87.6049V18.1001H88.1889V17.9001ZM98.786 15.5904L98.8711 15.6217L98.9096 15.4904H98.786V15.5904ZM97.5293 17.6032L97.5786 17.6868L97.5795 17.6862L97.5293 17.6032ZM92.7302 17.178L92.6675 17.2496L92.6684 17.2501L92.7302 17.178ZM92.1336 12.5145L92.053 12.4697V12.4703L92.1336 12.5145ZM93.3518 11.0828L93.3984 11.1686L93.3993 11.168L93.3518 11.0828ZM97.9351 11.5648L97.8733 11.6364V11.6369L97.9351 11.5648ZM98.9643 14.5131V14.6131H99.0565L99.0538 14.5101L98.9643 14.5131ZM92.336 14.5131V14.4131H92.2438L92.2474 14.517L92.336 14.5131ZM93.212 16.8236L93.152 16.8976L93.212 16.8236ZM97.1227 17.1921L97.0752 17.1072V17.1077L97.1227 17.1921ZM98.202 15.5904V15.4904H98.1411L98.1187 15.5533L98.202 15.5904ZM98.3041 13.9461V14.0461H98.4062L98.3928 13.9327L98.3041 13.9461ZM97.3386 11.8341L97.2812 11.9106L97.3386 11.8341ZM93.3267 11.8341L93.384 11.9107L93.3849 11.9101L93.3267 11.8341ZM92.336 13.9461L92.2483 13.9298L92.2313 14.0461H92.336V13.9461ZM98.7009 15.5591C98.4349 16.4603 98.0256 17.1103 97.4792 17.5202L97.5795 17.6862C98.1671 17.2456 98.5961 16.5538 98.8711 15.6217L98.7009 15.5591ZM97.4801 17.5196C96.931 17.922 96.2306 18.1269 95.3707 18.1269V18.3269C96.2557 18.3269 96.9928 18.116 97.5786 17.6868L97.4801 17.5196ZM95.3707 18.1269C94.2797 18.1269 93.4234 17.7834 92.792 17.1059L92.6684 17.2501C93.3401 17.9711 94.2448 18.3269 95.3707 18.3269V18.1269ZM92.7929 17.1063C92.1614 16.4197 91.8416 15.4976 91.8416 14.3288H91.6625C91.6625 15.5415 91.9957 16.5188 92.6675 17.2496L92.7929 17.1063ZM91.8416 14.3288C91.8416 13.7112 91.9661 13.1215 92.2133 12.5586L92.053 12.4703C91.7933 13.0603 91.6625 13.6802 91.6625 14.3288H91.8416ZM92.2133 12.5592C92.4677 11.9919 92.8609 11.5283 93.3984 11.1686L93.3061 10.9971C92.7427 11.3744 92.3235 11.8653 92.053 12.4697L92.2133 12.5592ZM93.3993 11.168C93.9322 10.8018 94.5923 10.6158 95.3832 10.6158V10.4158C94.5672 10.4158 93.8722 10.6078 93.3052 10.9977L93.3993 11.168ZM95.3832 10.6158C96.4231 10.6158 97.2499 10.9585 97.8733 11.6364L97.9978 11.4931C97.335 10.7724 96.4608 10.4158 95.3832 10.4158V10.6158ZM97.8733 11.6369C98.5039 12.3137 98.8407 13.269 98.8747 14.5161L99.0538 14.5101C99.0189 13.2247 98.6705 12.2144 97.9978 11.4927L97.8733 11.6369ZM98.9643 14.4131H92.336V14.6131H98.9643V14.4131ZM92.2474 14.517C92.2814 15.5212 92.5806 16.3187 93.152 16.8976L93.273 16.7495C92.7436 16.2134 92.4588 15.4706 92.4256 14.5093L92.2474 14.517ZM93.152 16.8976C93.7226 17.4758 94.4866 17.7599 95.4343 17.7599V17.5599C94.5198 17.5599 93.8023 17.2865 93.273 16.7495L93.152 16.8976ZM95.4343 17.7599C96.132 17.7599 96.7125 17.6013 97.1711 17.2766L97.0752 17.1077C96.6533 17.4066 96.1079 17.5599 95.4343 17.5599V17.7599ZM97.1702 17.277C97.6404 16.9504 98.0103 16.3959 98.2853 15.6275L98.1187 15.5533C97.8527 16.2968 97.5025 16.8102 97.0752 17.1072L97.1702 17.277ZM98.202 15.6904H98.786V15.4904H98.202V15.6904ZM98.3928 13.9327C98.2799 13.0055 97.9494 12.2772 97.3968 11.7576L97.2812 11.9106C97.7945 12.3927 98.1071 13.0724 98.2146 13.9595L98.3928 13.9327ZM97.3968 11.7576C96.8441 11.2389 96.1455 10.9828 95.3071 10.9828V11.1828C96.1114 11.1828 96.7671 11.4275 97.2812 11.9106L97.3968 11.7576ZM95.3071 10.9828C94.4938 10.9828 93.8122 11.2394 93.2685 11.7581L93.3849 11.9101C93.891 11.4271 94.5296 11.1828 95.3071 11.1828V10.9828ZM93.2694 11.7575C92.7248 12.2673 92.3862 12.9949 92.2483 13.9298L92.4247 13.9624C92.5573 13.0641 92.8788 12.3836 93.384 11.9107L93.2694 11.7575ZM92.336 14.0461H98.3041V13.8461H92.336V14.0461ZM99.8949 18.0001H99.8053V18.1001H99.8949V18.0001ZM99.8949 10.7426V10.6426H99.8053V10.7426H99.8949ZM100.479 10.7426H100.568V10.6426H100.479V10.7426ZM100.479 12.4578H100.389V12.5578H100.479V12.4578ZM100.504 12.4578V12.5578H100.566L100.588 12.4939L100.504 12.4578ZM101.533 11.0119L101.485 10.9276L101.533 11.0119ZM103.437 10.5442L103.415 10.6419L103.426 10.6434L103.437 10.5442ZM103.678 10.6009H103.768V10.5245L103.702 10.5044L103.678 10.6009ZM103.678 11.2529L103.652 11.3487L103.768 11.3873V11.2529H103.678ZM103.399 11.1962L103.383 11.2951L103.392 11.2959L103.399 11.1962ZM101.19 11.9758L101.254 12.0459L101.19 11.9758ZM100.479 18.0001V18.1001H100.568V18.0001H100.479ZM99.9845 18.0001V10.7426H99.8053V18.0001H99.9845ZM99.8949 10.8426H100.479V10.6426H99.8949V10.8426ZM100.389 10.7426V12.4578H100.568V10.7426H100.389ZM100.479 12.5578H100.504V12.3578H100.479V12.5578ZM100.588 12.4939C100.801 11.8785 101.133 11.4144 101.581 11.0963L101.485 10.9276C101.001 11.2709 100.647 11.7707 100.421 12.4216L100.588 12.4939ZM101.581 11.0963C102.03 10.7772 102.563 10.6158 103.183 10.6158V10.4158C102.534 10.4158 101.967 10.5852 101.485 10.9276L101.581 11.0963ZM103.183 10.6158C103.281 10.6158 103.358 10.6249 103.416 10.6412L103.459 10.4472C103.382 10.4256 103.29 10.4158 103.183 10.4158V10.6158ZM103.426 10.6434C103.488 10.6521 103.565 10.6698 103.655 10.6974L103.702 10.5044C103.607 10.4753 103.522 10.4552 103.448 10.4449L103.426 10.6434ZM103.589 10.6009V11.2529H103.768V10.6009H103.589ZM103.704 11.1571C103.613 11.1265 103.514 11.1065 103.407 11.0966L103.392 11.2959C103.488 11.3048 103.574 11.3226 103.652 11.3487L103.704 11.1571ZM103.415 11.0978C103.314 11.0773 103.177 11.0679 103.006 11.0679V11.2679C103.173 11.2679 103.298 11.2773 103.383 11.2946L103.415 11.0978ZM103.006 11.0679C102.248 11.0679 101.618 11.3462 101.127 11.9057L101.254 12.0459C101.71 11.5282 102.291 11.2679 103.006 11.2679V11.0679ZM101.127 11.9057C100.634 12.4655 100.389 13.1864 100.389 14.0595H100.568C100.568 13.2316 100.799 12.5634 101.254 12.0459L101.127 11.9057ZM100.389 14.0595V18.0001H100.568V14.0595H100.389ZM100.479 17.9001H99.8949V18.1001H100.479V17.9001ZM104.333 20.6083H104.244V20.7083H104.333V20.6083ZM104.333 20.0413V19.9413H104.244V20.0413H104.333ZM105.59 19.9562L105.563 19.8606L105.558 19.8626L105.59 19.9562ZM105.92 19.7152L105.857 19.6442L105.851 19.6512L105.92 19.7152ZM106.276 19.0916L106.356 19.1374V19.1367L106.276 19.0916ZM106.771 18.0001L106.851 18.0453L106.872 18.0001L106.851 17.955L106.771 18.0001ZM103.482 10.7426V10.6426H103.337L103.402 10.7878L103.482 10.7426ZM104.142 10.7426L104.223 10.698L104.198 10.6426H104.142V10.7426ZM107.063 17.2772L106.983 17.3218L107.066 17.509L107.145 17.3188L107.063 17.2772ZM109.741 10.7426V10.6426H109.684L109.661 10.701L109.741 10.7426ZM110.402 10.7426L110.483 10.7851L110.543 10.6426H110.402V10.7426ZM106.809 19.3042L106.728 19.2617L106.727 19.2629L106.809 19.3042ZM106.124 20.3248L106.075 20.2402L106.073 20.2424L106.124 20.3248ZM104.423 20.6083V20.0413H104.244V20.6083H104.423ZM104.333 20.1413H104.981V19.9413H104.333V20.1413ZM104.981 20.1413C105.255 20.1413 105.471 20.113 105.621 20.0498L105.558 19.8626C105.438 19.9129 105.249 19.9413 104.981 19.9413V20.1413ZM105.617 20.0517C105.767 19.9991 105.893 19.9085 105.989 19.7793L105.851 19.6512C105.779 19.7488 105.684 19.8188 105.563 19.8608L105.617 20.0517ZM105.984 19.786C106.088 19.6699 106.211 19.4492 106.356 19.1374L106.196 19.0458C106.052 19.3576 105.939 19.5527 105.857 19.6445L105.984 19.786ZM106.356 19.1367L106.851 18.0453L106.691 17.9549L106.196 19.0464L106.356 19.1367ZM106.851 17.955L103.563 10.6975L103.402 10.7878L106.691 18.0452L106.851 17.955ZM103.482 10.8426H104.142V10.6426H103.482V10.8426ZM104.063 10.7873L106.983 17.3218L107.143 17.2325L104.223 10.698L104.063 10.7873ZM107.145 17.3188L109.823 10.7842L109.661 10.701L106.982 17.2356L107.145 17.3188ZM109.741 10.8426H110.402V10.6426H109.741V10.8426ZM110.321 10.7002L106.728 19.2617L106.89 19.3466L110.483 10.7851L110.321 10.7002ZM106.727 19.2629C106.528 19.7563 106.308 20.0759 106.075 20.2403L106.171 20.4092C106.447 20.2145 106.684 19.8538 106.89 19.3454L106.727 19.2629ZM106.073 20.2424C105.847 20.4164 105.541 20.5083 105.146 20.5083V20.7083C105.564 20.7083 105.91 20.6111 106.174 20.4071L106.073 20.2424ZM105.146 20.5083H104.333V20.7083H105.146V20.5083ZM114.155 18.0568L114.173 18.1547L114.244 18.1379V18.0568H114.155ZM113.723 18.1277L113.717 18.0279L113.723 18.1277ZM111.907 17.7733L111.843 17.8427L111.844 17.844L111.907 17.7733ZM111.577 11.3096H111.666V11.2096H111.577V11.3096ZM110.104 11.3096H110.015V11.4096H110.104V11.3096ZM110.104 10.7426V10.6426H110.015V10.7426H110.104ZM111.577 10.7426V10.8426H111.666V10.7426H111.577ZM111.577 8.29037V8.19037H111.487V8.29037H111.577ZM112.162 8.29037H112.251V8.19037H112.162V8.29037ZM112.162 10.7426H112.072V10.8426H112.162V10.7426ZM114.091 10.7426H114.181V10.6426H114.091V10.7426ZM114.091 11.3096V11.4096H114.181V11.3096H114.091ZM112.162 11.3096V11.2096H112.072V11.3096H112.162ZM112.466 17.3906L112.42 17.4771L112.425 17.4793L112.466 17.3906ZM114.155 17.4898H114.244V17.3749L114.142 17.3908L114.155 17.4898ZM114.136 17.9589C113.978 17.996 113.838 18.0188 113.717 18.0279L113.729 18.2275C113.861 18.2176 114.009 18.1932 114.173 18.1547L114.136 17.9589ZM113.717 18.0279C113.593 18.0371 113.409 18.0418 113.164 18.0418V18.2418C113.41 18.2418 113.599 18.2371 113.729 18.2275L113.717 18.0279ZM113.164 18.0418C112.549 18.0418 112.163 17.918 111.971 17.7026L111.844 17.844C112.091 18.12 112.543 18.2418 113.164 18.2418V18.0418ZM111.972 17.7039C111.877 17.5941 111.8 17.4206 111.747 17.1725C111.694 16.9252 111.666 16.6111 111.666 16.2283H111.487C111.487 16.6203 111.516 16.9512 111.572 17.2189C111.63 17.4858 111.717 17.6974 111.843 17.8427L111.972 17.7039ZM111.666 16.2283V11.3096H111.487V16.2283H111.666ZM111.577 11.2096H110.104V11.4096H111.577V11.2096ZM110.194 11.3096V10.7426H110.015V11.3096H110.194ZM110.104 10.8426H111.577V10.6426H110.104V10.8426ZM111.666 10.7426V8.29037H111.487V10.7426H111.666ZM111.577 8.39037H112.162V8.19037H111.577V8.39037ZM112.072 8.29037V10.7426H112.251V8.29037H112.072ZM112.162 10.8426H114.091V10.6426H112.162V10.8426ZM114.001 10.7426V11.3096H114.181V10.7426H114.001ZM114.091 11.2096H112.162V11.4096H114.091V11.2096ZM112.072 11.3096V16.5401H112.251V11.3096H112.072ZM112.072 16.5401C112.072 16.9861 112.175 17.3172 112.42 17.477L112.511 17.3042C112.35 17.1994 112.251 16.9635 112.251 16.5401H112.072ZM112.425 17.4793C112.654 17.6126 112.962 17.6749 113.342 17.6749V17.4749C112.977 17.4749 112.701 17.4143 112.507 17.3019L112.425 17.4793ZM113.342 17.6749C113.527 17.6749 113.803 17.6457 114.167 17.5888L114.142 17.3908C113.779 17.4474 113.513 17.4749 113.342 17.4749V17.6749ZM114.065 17.4898V18.0568H114.244V17.4898H114.065ZM120.699 18.0001H120.609V18.1001H120.699V18.0001ZM120.115 11.6498L120.055 11.7253L120.115 11.6498ZM116.293 11.8199L116.351 11.8961L116.352 11.8955L116.293 11.8199ZM115.531 18.0001V18.1001H115.621V18.0001H115.531ZM114.947 18.0001H114.858V18.1001H114.947V18.0001ZM114.947 7.8793V7.7793H114.858V7.8793H114.947ZM115.531 7.8793H115.621V7.7793H115.531V7.8793ZM115.531 12.1884H115.442V12.2884H115.531V12.1884ZM115.556 12.1884V12.2884H115.61L115.635 12.2361L115.556 12.1884ZM116.674 10.9411L116.715 11.0299L116.716 11.0292L116.674 10.9411ZM120.534 11.2246L120.475 11.3003L120.476 11.3015L120.534 11.2246ZM121.283 18.0001V18.1001H121.372V18.0001H121.283ZM120.788 18.0001V13.4925H120.609V18.0001H120.788ZM120.788 13.4925C120.788 12.6271 120.59 11.9789 120.174 11.5743L120.055 11.7253C120.418 12.0767 120.609 12.657 120.609 13.4925H120.788ZM120.174 11.5743C119.761 11.1734 119.125 10.9828 118.286 10.9828V11.1828C119.107 11.1828 119.69 11.3703 120.055 11.7253L120.174 11.5743ZM118.286 10.9828C117.449 10.9828 116.762 11.2339 116.234 11.7443L116.352 11.8955C116.84 11.4231 117.482 11.1828 118.286 11.1828V10.9828ZM116.235 11.7437C115.706 12.2458 115.442 12.9075 115.442 13.7193H115.621C115.621 12.9625 115.864 12.3579 116.351 11.8961L116.235 11.7437ZM115.442 13.7193V18.0001H115.621V13.7193H115.442ZM115.531 17.9001H114.947V18.1001H115.531V17.9001ZM115.037 18.0001V7.8793H114.858V18.0001H115.037ZM114.947 7.9793H115.531V7.7793H114.947V7.9793ZM115.442 7.8793V12.1884H115.621V7.8793H115.442ZM115.531 12.2884H115.556V12.0884H115.531V12.2884ZM115.635 12.2361C115.898 11.695 116.258 11.2941 116.715 11.0299L116.633 10.8523C116.142 11.1361 115.757 11.5668 115.477 12.1408L115.635 12.2361ZM116.716 11.0292C117.176 10.7545 117.702 10.6158 118.299 10.6158V10.4158C117.676 10.4158 117.12 10.5607 116.631 10.8529L116.716 11.0292ZM118.299 10.6158C119.288 10.6158 120.007 10.85 120.475 11.3003L120.592 11.1488C120.078 10.6541 119.308 10.4158 118.299 10.4158V10.6158ZM120.476 11.3015C120.948 11.7389 121.193 12.4421 121.193 13.4358H121.372C121.372 12.4073 121.118 11.6363 120.591 11.1476L120.476 11.3015ZM121.193 13.4358V18.0001H121.372V13.4358H121.193ZM121.283 17.9001H120.699V18.1001H121.283V17.9001ZM122.76 9.38183H122.67V9.48183H122.76V9.38183ZM122.76 7.8793V7.7793H122.67V7.8793H122.76ZM123.344 7.8793H123.433V7.7793H123.344V7.8793ZM123.344 9.38183V9.48183H123.433V9.38183H123.344ZM122.76 18.0001H122.67V18.1001H122.76V18.0001ZM122.76 10.7426V10.6426H122.67V10.7426H122.76ZM123.344 10.7426H123.433V10.6426H123.344V10.7426ZM123.344 18.0001V18.1001H123.433V18.0001H123.344ZM122.849 9.38183V7.8793H122.67V9.38183H122.849ZM122.76 7.9793H123.344V7.7793H122.76V7.9793ZM123.254 7.8793V9.38183H123.433V7.8793H123.254ZM123.344 9.28183H122.76V9.48183H123.344V9.28183ZM122.849 18.0001V10.7426H122.67V18.0001H122.849ZM122.76 10.8426H123.344V10.6426H122.76V10.8426ZM123.254 10.7426V18.0001H123.433V10.7426H123.254ZM123.344 17.9001H122.76V18.1001H123.344V17.9001ZM130.568 18.0001H130.479V18.1001H130.568V18.0001ZM129.984 11.6782L129.923 11.7513L129.924 11.7528L129.984 11.6782ZM126.15 11.8057L126.092 11.7295V11.7301L126.15 11.8057ZM125.401 18.0001V18.1001H125.491V18.0001H125.401ZM124.817 18.0001H124.727V18.1001H124.817V18.0001ZM124.817 10.7426V10.6426H124.727V10.7426H124.817ZM125.401 10.7426H125.491V10.6426H125.401V10.7426ZM125.401 12.1884H125.311V12.2884H125.401V12.1884ZM125.426 12.1884V12.2884H125.479L125.505 12.2361L125.426 12.1884ZM126.543 10.9411L126.584 11.0299L126.586 11.0292L126.543 10.9411ZM130.429 11.2387L130.488 11.1642L130.429 11.2387ZM131.152 18.0001V18.1001H131.242V18.0001H131.152ZM130.658 18.0001V13.5634H130.479V18.0001H130.658ZM130.658 13.5634C130.658 12.6797 130.46 12.0177 130.043 11.6035L129.924 11.7528C130.287 12.1135 130.479 12.7084 130.479 13.5634H130.658ZM130.045 11.6051C129.64 11.183 129.004 10.9828 128.156 10.9828V11.1828C128.984 11.1828 129.566 11.3796 129.923 11.7513L130.045 11.6051ZM128.156 10.9828C127.311 10.9828 126.619 11.2287 126.092 11.7295L126.208 11.8819C126.695 11.4188 127.342 11.1828 128.156 11.1828V10.9828ZM126.092 11.7301C125.569 12.2338 125.311 12.9247 125.311 13.7902H125.491C125.491 12.9736 125.732 12.3415 126.208 11.8814L126.092 11.7301ZM125.311 13.7902V18.0001H125.491V13.7902H125.311ZM125.401 17.9001H124.817V18.1001H125.401V17.9001ZM124.907 18.0001V10.7426H124.727V18.0001H124.907ZM124.817 10.8426H125.401V10.6426H124.817V10.8426ZM125.311 10.7426V12.1884H125.491V10.7426H125.311ZM125.401 12.2884H125.426V12.0884H125.401V12.2884ZM125.505 12.2361C125.767 11.695 126.127 11.2941 126.584 11.0299L126.502 10.8523C126.011 11.1361 125.626 11.5668 125.347 12.1408L125.505 12.2361ZM126.586 11.0292C127.045 10.7545 127.572 10.6158 128.169 10.6158V10.4158C127.546 10.4158 126.99 10.5607 126.501 10.8529L126.586 11.0292ZM128.169 10.6158C129.183 10.6158 129.91 10.855 130.369 11.3133L130.488 11.1642C129.982 10.6586 129.202 10.4158 128.169 10.4158V10.6158ZM130.369 11.3133C130.827 11.7708 131.063 12.4533 131.063 13.3791H131.242C131.242 12.415 130.995 11.6705 130.488 11.1642L130.369 11.3133ZM131.063 13.3791V18.0001H131.242V13.3791H131.063ZM131.152 17.9001H130.568V18.1001H131.152V17.9001ZM138.8 16.1716H138.889V16.0716H138.8V16.1716ZM138.774 16.1716V16.0716H138.72L138.695 16.1246L138.774 16.1716ZM137.581 17.4898L137.62 17.5796L137.621 17.579L137.581 17.4898ZM133.15 16.9228L133.088 16.9954L133.089 16.9964L133.15 16.9228ZM133.162 11.5081L133.222 11.5821L133.162 11.5081ZM137.618 10.9411L137.579 11.0308L137.58 11.0311L137.618 10.9411ZM138.774 12.2026L138.694 12.2467L138.707 12.277L138.734 12.2921L138.774 12.2026ZM138.8 12.2168L138.76 12.3062L138.889 12.3786V12.2168H138.8ZM138.8 10.7426V10.6426H138.71V10.7426H138.8ZM139.384 10.7426H139.473V10.6426H139.384V10.7426ZM138.52 20.2397L138.46 20.1653L138.46 20.1658L138.52 20.2397ZM133.454 20.5516L133.408 20.6367L133.454 20.5516ZM132.464 18.6805V18.5805H132.361L132.375 18.6945L132.464 18.6805ZM133.048 18.6805L133.136 18.6663L133.126 18.5805H133.048V18.6805ZM133.861 20.1121L133.816 20.1989L133.817 20.1993L133.861 20.1121ZM133.556 16.5401L133.495 16.6126L133.496 16.6137L133.556 16.5401ZM138 16.4976L137.938 16.4252L137.937 16.4257L138 16.4976ZM137.987 11.8908L137.927 11.9649L137.928 11.966L137.987 11.8908ZM133.607 11.9333L133.667 12.0073L133.607 11.9333ZM138.8 16.0716H138.774V16.2716H138.8V16.0716ZM138.695 16.1246C138.425 16.6928 138.039 17.1173 137.541 17.4007L137.621 17.579C138.154 17.2764 138.565 16.8221 138.854 16.2185L138.695 16.1246ZM137.541 17.4001C137.04 17.6753 136.436 17.8151 135.727 17.8151V18.0151C136.457 18.0151 137.089 17.8713 137.62 17.5795L137.541 17.4001ZM135.727 17.8151C134.669 17.8151 133.833 17.4901 133.211 16.8493L133.089 16.9964C133.753 17.6786 134.635 18.0151 135.727 18.0151V17.8151ZM133.212 16.8502C132.598 16.2017 132.287 15.3135 132.287 14.1729H132.108C132.108 15.357 132.432 16.302 133.088 16.9954L133.212 16.8502ZM132.287 14.1729C132.287 13.0716 132.601 12.2121 133.222 11.5821L133.102 11.434C132.437 12.1081 132.108 13.0251 132.108 14.1729H132.287ZM133.222 11.5821C133.855 10.9407 134.69 10.6158 135.739 10.6158V10.4158C134.655 10.4158 133.774 10.7525 133.102 11.4341L133.222 11.5821ZM135.739 10.6158C136.466 10.6158 137.078 10.7557 137.579 11.0308L137.658 10.8513C137.127 10.5595 136.486 10.4158 135.739 10.4158V10.6158ZM137.58 11.0311C138.088 11.3054 138.458 11.7102 138.694 12.2467L138.855 12.1585C138.6 11.5799 138.2 11.1438 137.658 10.8511L137.58 11.0311ZM138.734 12.2921L138.76 12.3062L138.839 12.1274L138.814 12.1132L138.734 12.2921ZM138.889 12.2168V10.7426H138.71V12.2168H138.889ZM138.8 10.8426H139.384V10.6426H138.8V10.8426ZM139.294 10.7426V17.7024H139.473V10.7426H139.294ZM139.294 17.7024C139.294 18.7979 139.012 19.613 138.46 20.1653L138.58 20.3141C139.18 19.7136 139.473 18.8371 139.473 17.7024H139.294ZM138.46 20.1658C137.908 20.7276 137.037 21.0185 135.829 21.0185V21.2185C137.058 21.2185 137.981 20.9236 138.58 20.3136L138.46 20.1658ZM135.829 21.0185C134.803 21.0185 134.031 20.8305 133.501 20.4664L133.408 20.6367C133.977 21.0286 134.788 21.2185 135.829 21.2185V21.0185ZM133.501 20.4664C132.979 20.1074 132.66 19.5134 132.552 18.6665L132.375 18.6945C132.488 19.5863 132.83 20.2397 133.408 20.6367L133.501 20.4664ZM132.464 18.7805H133.048V18.5805H132.464V18.7805ZM132.959 18.6946C133.048 19.3819 133.332 19.8884 133.816 20.1989L133.905 20.0254C133.476 19.75 133.218 19.302 133.136 18.6663L132.959 18.6946ZM133.817 20.1993C134.302 20.5042 134.975 20.6516 135.829 20.6516V20.4516C134.99 20.4516 134.351 20.306 133.905 20.025L133.817 20.1993ZM135.829 20.6516C136.829 20.6516 137.597 20.4143 138.115 19.9225C138.636 19.4281 138.889 18.6911 138.889 17.7308H138.71C138.71 18.651 138.468 19.3243 137.999 19.7702C137.526 20.2187 136.809 20.4516 135.829 20.4516V20.6516ZM138.889 17.7308V16.1716H138.71V17.7308H138.889ZM132.692 14.1446C132.692 15.2118 132.955 16.0401 133.495 16.6126L133.617 16.4676C133.125 15.9439 132.871 15.1752 132.871 14.1446H132.692ZM133.496 16.6137C134.042 17.1747 134.816 17.4481 135.803 17.4481V17.2481C134.844 17.2481 134.12 16.9828 133.616 16.4665L133.496 16.6137ZM135.803 17.4481C136.759 17.4481 137.516 17.1592 138.062 16.5694L137.937 16.4257C137.434 16.9699 136.726 17.2481 135.803 17.2481V17.4481ZM138.062 16.57C138.616 15.9799 138.889 15.1622 138.889 14.1304H138.71C138.71 15.1209 138.45 15.8812 137.938 16.4252L138.062 16.57ZM138.889 14.1304C138.889 13.144 138.611 12.3675 138.046 11.8155L137.928 11.966C138.446 12.4725 138.71 13.1891 138.71 14.1304H138.889ZM138.047 11.8166C137.492 11.2562 136.715 10.9828 135.727 10.9828V11.1828C136.686 11.1828 137.415 11.4481 137.927 11.9649L138.047 11.8166ZM135.727 10.9828C134.853 10.9828 134.123 11.2734 133.547 11.8593L133.667 12.0073C134.207 11.4593 134.891 11.1828 135.727 11.1828V10.9828ZM133.547 11.8593C132.975 12.4379 132.692 13.203 132.692 14.1446H132.871C132.871 13.2528 133.137 12.5438 133.667 12.0073L133.547 11.8593ZM79.6006 33.0001H79.5111V33.1001H79.6006V33.0001ZM79.6006 23.4463H79.6902V23.3463H79.6006V23.4463ZM75.9441 23.4463H75.8545V23.5463H75.9441V23.4463ZM75.9441 22.8793V22.7793H75.8545V22.8793H75.9441ZM83.8413 22.8793H83.9308V22.7793H83.8413V22.8793ZM83.8413 23.4463V23.5463H83.9308V23.4463H83.8413ZM80.1846 23.4463V23.3463H80.0951V23.4463H80.1846ZM80.1846 33.0001V33.1001H80.2742V33.0001H80.1846ZM79.6902 33.0001V23.4463H79.5111V33.0001H79.6902ZM79.6006 23.3463H75.9441V23.5463H79.6006V23.3463ZM76.0337 23.4463V22.8793H75.8545V23.4463H76.0337ZM75.9441 22.9793H83.8413V22.7793H75.9441V22.9793ZM83.7517 22.8793V23.4463H83.9308V22.8793H83.7517ZM83.8413 23.3463H80.1846V23.5463H83.8413V23.3463ZM80.0951 23.4463V33.0001H80.2742V23.4463H80.0951ZM80.1846 32.9001H79.6006V33.1001H80.1846V32.9001ZM89.5988 30.5904L89.6839 30.6217L89.7224 30.4904H89.5988V30.5904ZM88.3417 32.6032L88.3909 32.6868L88.3916 32.6862L88.3417 32.6032ZM83.5425 32.178L83.48 32.2496L83.4804 32.2501L83.5425 32.178ZM82.9457 27.5145L82.8657 27.4697L82.8654 27.4703L82.9457 27.5145ZM84.1646 26.0828L84.2107 26.1686L84.2116 26.168L84.1646 26.0828ZM88.748 26.5648L88.6855 26.6364L88.686 26.6369L88.748 26.5648ZM89.7761 29.5131V29.6131H89.8684L89.8657 29.5101L89.7761 29.5131ZM83.1489 29.5131V29.4131H83.0558L83.0594 29.517L83.1489 29.5131ZM84.025 31.8236L83.9648 31.8976L84.025 31.8236ZM87.9354 32.1921L87.8881 32.1072L87.8874 32.1077L87.9354 32.1921ZM89.0146 30.5904V30.4904H88.954L88.9315 30.5533L89.0146 30.5904ZM89.1162 28.9461V29.0461H89.2187L89.2049 28.9327L89.1162 28.9461ZM88.1513 26.8341L88.0936 26.9106L88.1513 26.8341ZM84.1392 26.8341L84.1968 26.9107L84.1974 26.9101L84.1392 26.8341ZM83.1489 28.9461L83.0605 28.9298L83.0434 29.0461H83.1489V28.9461ZM89.5136 30.5591C89.2473 31.4603 88.8384 32.1103 88.2918 32.5202L88.3916 32.6862C88.9793 32.2456 89.4083 31.5538 89.6839 30.6217L89.5136 30.5591ZM88.2926 32.5196C87.7437 32.922 87.0426 33.1269 86.1834 33.1269V33.3269C87.0677 33.3269 87.8056 33.116 88.3909 32.6868L88.2926 32.5196ZM86.1834 33.1269C85.0921 33.1269 84.236 32.7834 83.6045 32.1059L83.4804 32.2501C84.1524 32.9711 85.0569 33.3269 86.1834 33.3269V33.1269ZM83.605 32.1063C82.9735 31.4197 82.6545 30.4976 82.6545 29.3288H82.4753C82.4753 30.5415 82.808 31.5188 83.48 32.2496L83.605 32.1063ZM82.6545 29.3288C82.6545 28.7112 82.7782 28.1215 83.0261 27.5586L82.8654 27.4703C82.6055 28.0603 82.4753 28.6802 82.4753 29.3288H82.6545ZM83.0259 27.5592C83.2799 26.9919 83.6737 26.5283 84.2107 26.1686L84.1185 25.9971C83.5552 26.3744 83.1363 26.8653 82.8657 27.4697L83.0259 27.5592ZM84.2116 26.168C84.7445 25.8018 85.4045 25.6158 86.1961 25.6158V25.4158C85.3794 25.4158 84.685 25.6078 84.1177 25.9977L84.2116 26.168ZM86.1961 25.6158C87.2352 25.6158 88.0619 25.9585 88.6855 26.6364L88.8105 26.4931C88.1475 25.7724 87.273 25.4158 86.1961 25.4158V25.6158ZM88.686 26.6369C89.3167 27.3137 89.6534 28.269 89.6865 29.5161L89.8657 29.5101C89.8317 28.2247 89.4828 27.2144 88.8101 26.4927L88.686 26.6369ZM89.7761 29.4131H83.1489V29.6131H89.7761V29.4131ZM83.0594 29.517C83.094 30.5212 83.3935 31.3187 83.9648 31.8976L84.0852 31.7495C83.5561 31.2134 83.2715 30.4706 83.2384 29.5093L83.0594 29.517ZM83.9648 31.8976C84.5353 32.4758 85.2994 32.7599 86.2469 32.7599V32.5599C85.3322 32.5599 84.615 32.2865 84.0852 31.7495L83.9648 31.8976ZM86.2469 32.7599C86.9442 32.7599 87.525 32.6013 87.9835 32.2766L87.8874 32.1077C87.4656 32.4066 86.9207 32.5599 86.2469 32.5599V32.7599ZM87.9827 32.277C88.4527 31.9504 88.8225 31.3959 89.0978 30.6275L88.9315 30.5533C88.6651 31.2968 88.3154 31.8102 87.8881 32.1072L87.9827 32.277ZM89.0146 30.6904H89.5988V30.4904H89.0146V30.6904ZM89.2049 28.9327C89.0925 28.0055 88.7622 27.2772 88.2089 26.7576L88.0936 26.9106C88.6069 27.3927 88.9198 28.0724 89.0275 28.9595L89.2049 28.9327ZM88.2089 26.7576C87.6568 26.2389 86.9581 25.9828 86.1199 25.9828V26.1828C86.9237 26.1828 87.5793 26.4275 88.0936 26.9106L88.2089 26.7576ZM86.1199 25.9828C85.3063 25.9828 84.6245 26.2394 84.081 26.7581L84.1974 26.9101C84.7036 26.4271 85.3421 26.1828 86.1199 26.1828V25.9828ZM84.0817 26.7575C83.5372 27.2673 83.1987 27.9949 83.0605 28.9298L83.2373 28.9624C83.37 28.0641 83.6917 27.3836 84.1968 26.9107L84.0817 26.7575ZM83.1489 29.0461H89.1162V28.8461H83.1489V29.0461ZM97.4237 30.4628L97.5114 30.4836L97.5347 30.3628H97.4237V30.4628ZM96.2431 32.5182L96.2942 32.6003V32.6001L96.2431 32.5182ZM92.1677 32.7875L92.1291 32.8777V32.878L92.1677 32.7875ZM90.834 31.4834L90.7596 31.5382L90.834 31.4834ZM91.3552 26.6073L91.4162 26.6802L91.4171 26.6798L91.3552 26.6073ZM96.2942 26.2529L96.2431 26.3351V26.3354L96.2942 26.2529ZM97.335 28.0248V28.1248H97.4326L97.4245 28.0166L97.335 28.0248ZM96.751 28.0248L96.6623 28.036L96.6713 28.1248H96.751V28.0248ZM95.875 26.6782L95.8248 26.7614L95.875 26.6782ZM91.7735 27.0042L91.8362 27.0765L91.7735 27.0042ZM91.2531 30.9589L91.1734 31.0043L91.1743 31.005L91.2531 30.9589ZM92.2948 32.178L92.2474 32.263L92.2948 32.178ZM95.8875 32.0504L95.8356 31.9691L95.8347 31.9696L95.8875 32.0504ZM96.8397 30.4628V30.3628H96.768L96.7519 30.4416L96.8397 30.4628ZM97.3359 30.442C97.1711 31.3076 96.7895 31.97 96.1921 32.4362L96.2942 32.6001C96.9328 32.1025 97.3377 31.3946 97.5114 30.4836L97.3359 30.442ZM96.1921 32.436C95.6 32.8947 94.87 33.1269 93.9958 33.1269V33.3269C94.8996 33.3269 95.6672 33.0866 96.2942 32.6003L96.1921 32.436ZM93.9958 33.1269C93.3482 33.1269 92.7517 32.9832 92.2053 32.697L92.1291 32.878C92.7006 33.1776 93.3231 33.3269 93.9958 33.3269V33.1269ZM92.2062 32.6972C91.6705 32.4123 91.2388 31.9899 90.9092 31.4286L90.7596 31.5382C91.1071 32.1298 91.564 32.5768 92.1291 32.8777L92.2062 32.6972ZM90.9092 31.4286C90.5814 30.8706 90.4157 30.2099 90.4157 29.4422H90.2365C90.2365 30.2433 90.4103 30.9433 90.7596 31.5382L90.9092 31.4286ZM90.4157 29.4422C90.4157 28.2945 90.7506 27.3772 91.4162 26.6802L91.2934 26.5344C90.5876 27.2738 90.2365 28.2464 90.2365 29.4422H90.4157ZM91.4171 26.6798C92.0835 25.9722 92.9407 25.6158 93.9958 25.6158V25.4158C92.9012 25.4158 91.9975 25.7871 91.2934 26.5348L91.4171 26.6798ZM93.9958 25.6158C94.8781 25.6158 95.6251 25.8571 96.2431 26.3351L96.3452 26.1707C95.6932 25.666 94.9085 25.4158 93.9958 25.4158V25.6158ZM96.2431 26.3354C96.8701 26.8146 97.1979 27.3807 97.2454 28.033L97.4245 28.0166C97.3708 27.2892 97.0036 26.674 96.3443 26.1704L96.2431 26.3354ZM97.335 27.9248H96.751V28.1248H97.335V27.9248ZM96.8397 28.0135C96.785 27.4727 96.4706 27.0011 95.9242 26.595L95.8248 26.7614C96.3461 27.149 96.6148 27.5752 96.6623 28.036L96.8397 28.0135ZM95.9242 26.595C95.3752 26.1858 94.7303 25.9828 93.9958 25.9828V26.1828C94.6998 26.1828 95.308 26.3767 95.8248 26.7614L95.9242 26.595ZM93.9958 25.9828C93.0705 25.9828 92.3065 26.2974 91.7117 26.9319L91.8362 27.0765C92.3925 26.4825 93.1099 26.1828 93.9958 26.1828V25.9828ZM91.7117 26.9319C91.1161 27.5677 90.8214 28.4079 90.8214 29.4422H91.0006C91.0006 28.4543 91.28 27.6692 91.8362 27.0765L91.7117 26.9319ZM90.8214 29.4422C90.8214 29.9699 90.9396 30.4909 91.1734 31.0043L91.3329 30.9135C91.1107 30.4253 91.0006 29.9352 91.0006 29.4422H90.8214ZM91.1743 31.005C91.4108 31.5141 91.77 31.9333 92.2474 32.263L92.3414 32.0929C91.8882 31.7801 91.5532 31.3866 91.3329 30.9129L91.1743 31.005ZM92.2474 32.263C92.7302 32.596 93.3142 32.7599 93.9958 32.7599V32.5599C93.3401 32.5599 92.7902 32.4025 92.3414 32.0929L92.2474 32.263ZM93.9958 32.7599C94.7724 32.7599 95.4226 32.5527 95.9404 32.1312L95.8347 31.9696C95.3537 32.3608 94.7428 32.5599 93.9958 32.5599V32.7599ZM95.9395 32.1317C96.4644 31.7116 96.7958 31.1615 96.9274 30.4841L96.7519 30.4416C96.6301 31.0682 96.3264 31.5765 95.8356 31.9691L95.9395 32.1317ZM96.8397 30.5628H97.4237V30.3628H96.8397V30.5628ZM104.22 33.0001H104.131V33.1001H104.22V33.0001ZM103.636 26.6498L103.578 26.7253L103.636 26.6498ZM99.8152 26.8199L99.8725 26.8961L99.8734 26.8955L99.8152 26.8199ZM99.0529 33.0001V33.1001H99.1425V33.0001H99.0529ZM98.4689 33.0001H98.3794V33.1001H98.4689V33.0001ZM98.4689 22.8793V22.7793H98.3794V22.8793H98.4689ZM99.0529 22.8793H99.1425V22.7793H99.0529V22.8793ZM99.0529 27.1884H98.9634V27.2884H99.0529V27.1884ZM99.0789 27.1884V27.2884H99.1318L99.1568 27.2361L99.0789 27.1884ZM100.196 25.9411L100.237 26.0299L100.238 26.0292L100.196 25.9411ZM104.055 26.2246L103.997 26.3003L103.998 26.3015L104.055 26.2246ZM104.804 33.0001V33.1001H104.894V33.0001H104.804ZM104.31 33.0001V28.4925H104.131V33.0001H104.31ZM104.31 28.4925C104.31 27.6271 104.112 26.9789 103.695 26.5743L103.578 26.7253C103.94 27.0767 104.131 27.657 104.131 28.4925H104.31ZM103.695 26.5743C103.282 26.1734 102.647 25.9828 101.808 25.9828V26.1828C102.629 26.1828 103.212 26.3703 103.578 26.7253L103.695 26.5743ZM101.808 25.9828C100.971 25.9828 100.284 26.2339 99.7561 26.7443L99.8734 26.8955C100.362 26.4231 101.004 26.1828 101.808 26.1828V25.9828ZM99.757 26.7437C99.2276 27.2458 98.9634 27.9075 98.9634 28.7193H99.1425C99.1425 27.9625 99.3861 27.3579 99.8725 26.8961L99.757 26.7437ZM98.9634 28.7193V33.0001H99.1425V28.7193H98.9634ZM99.0529 32.9001H98.4689V33.1001H99.0529V32.9001ZM98.5585 33.0001V22.8793H98.3794V33.0001H98.5585ZM98.4689 22.9793H99.0529V22.7793H98.4689V22.9793ZM98.9634 22.8793V27.1884H99.1425V22.8793H98.9634ZM99.0529 27.2884H99.0789V27.0884H99.0529V27.2884ZM99.1568 27.2361C99.4202 26.695 99.7803 26.2941 100.237 26.0299L100.155 25.8523C99.6638 26.1361 99.2787 26.5668 99.0001 27.1408L99.1568 27.2361ZM100.238 26.0292C100.697 25.7545 101.224 25.6158 101.821 25.6158V25.4158C101.199 25.4158 100.642 25.5607 100.154 25.8529L100.238 26.0292ZM101.821 25.6158C102.81 25.6158 103.529 25.85 103.997 26.3003L104.114 26.1488C103.6 25.6541 102.83 25.4158 101.821 25.4158V25.6158ZM103.998 26.3015C104.47 26.7389 104.715 27.4421 104.715 28.4358H104.894C104.894 27.4073 104.639 26.6363 104.113 26.1476L103.998 26.3015ZM104.715 28.4358V33.0001H104.894V28.4358H104.715ZM104.804 32.9001H104.22V33.1001H104.804V32.9001ZM111.982 33.0001H111.893V33.1001H111.982V33.0001ZM111.398 26.6782L111.337 26.7513L111.338 26.7528L111.398 26.6782ZM107.564 26.8057L107.506 26.7295V26.7301L107.564 26.8057ZM106.815 33.0001V33.1001H106.905V33.0001H106.815ZM106.231 33.0001H106.142V33.1001H106.231V33.0001ZM106.231 25.7426V25.6426H106.142V25.7426H106.231ZM106.815 25.7426H106.905V25.6426H106.815V25.7426ZM106.815 27.1884H106.726V27.2884H106.815V27.1884ZM106.84 27.1884V27.2884H106.894L106.919 27.2361L106.84 27.1884ZM107.957 25.9411L107.998 26.0299L108 26.0292L107.957 25.9411ZM111.843 26.2387L111.903 26.1642L111.843 26.2387ZM112.566 33.0001V33.1001H112.656V33.0001H112.566ZM112.072 33.0001V28.5634H111.893V33.0001H112.072ZM112.072 28.5634C112.072 27.6797 111.874 27.0177 111.458 26.6035L111.338 26.7528C111.701 27.1135 111.893 27.7084 111.893 28.5634H112.072ZM111.459 26.6051C111.055 26.183 110.418 25.9828 109.57 25.9828V26.1828C110.398 26.1828 110.98 26.3796 111.337 26.7513L111.459 26.6051ZM109.57 25.9828C108.725 25.9828 108.033 26.2287 107.506 26.7295L107.622 26.8819C108.11 26.4188 108.756 26.1828 109.57 26.1828V25.9828ZM107.506 26.7301C106.984 27.2338 106.726 27.9247 106.726 28.7902H106.905C106.905 27.9736 107.146 27.3415 107.622 26.8814L107.506 26.7301ZM106.726 28.7902V33.0001H106.905V28.7902H106.726ZM106.815 32.9001H106.231V33.1001H106.815V32.9001ZM106.321 33.0001V25.7426H106.142V33.0001H106.321ZM106.231 25.8426H106.815V25.6426H106.231V25.8426ZM106.726 25.7426V27.1884H106.905V25.7426H106.726ZM106.815 27.2884H106.84V27.0884H106.815V27.2884ZM106.919 27.2361C107.181 26.695 107.542 26.2941 107.998 26.0299L107.916 25.8523C107.425 26.1361 107.04 26.5668 106.761 27.1408L106.919 27.2361ZM108 26.0292C108.459 25.7545 108.986 25.6158 109.583 25.6158V25.4158C108.96 25.4158 108.404 25.5607 107.915 25.8529L108 26.0292ZM109.583 25.6158C110.597 25.6158 111.324 25.855 111.783 26.3133L111.903 26.1642C111.396 25.6586 110.617 25.4158 109.583 25.4158V25.6158ZM111.783 26.3133C112.241 26.7708 112.477 27.4533 112.477 28.3791H112.656C112.656 27.415 112.409 26.6705 111.903 26.1642L111.783 26.3133ZM112.477 28.3791V33.0001H112.656V28.3791H112.477ZM112.566 32.9001H111.982V33.1001H112.566V32.9001ZM114.043 24.3818H113.954V24.4818H114.043V24.3818ZM114.043 22.8793V22.7793H113.954V22.8793H114.043ZM114.627 22.8793H114.717V22.7793H114.627V22.8793ZM114.627 24.3818V24.4818H114.717V24.3818H114.627ZM114.043 33.0001H113.954V33.1001H114.043V33.0001ZM114.043 25.7426V25.6426H113.954V25.7426H114.043ZM114.627 25.7426H114.717V25.6426H114.627V25.7426ZM114.627 33.0001V33.1001H114.717V33.0001H114.627ZM114.133 24.3818V22.8793H113.954V24.3818H114.133ZM114.043 22.9793H114.627V22.7793H114.043V22.9793ZM114.538 22.8793V24.3818H114.717V22.8793H114.538ZM114.627 24.2818H114.043V24.4818H114.627V24.2818ZM114.133 33.0001V25.7426H113.954V33.0001H114.133ZM114.043 25.8426H114.627V25.6426H114.043V25.8426ZM114.538 25.7426V33.0001H114.717V25.7426H114.538ZM114.627 32.9001H114.043V33.1001H114.627V32.9001ZM122.817 30.4628L122.905 30.4836L122.927 30.3628H122.817V30.4628ZM121.635 32.5182L121.687 32.6003L121.687 32.6001L121.635 32.5182ZM117.56 32.7875L117.521 32.8777L117.522 32.878L117.56 32.7875ZM116.227 31.4834L116.152 31.5382L116.227 31.4834ZM116.748 26.6073L116.809 26.6802V26.6798L116.748 26.6073ZM121.687 26.2529L121.635 26.3351L121.636 26.3354L121.687 26.2529ZM122.727 28.0248V28.1248H122.825L122.817 28.0166L122.727 28.0248ZM122.143 28.0248L122.055 28.036L122.064 28.1248H122.143V28.0248ZM121.267 26.6782L121.218 26.7614L121.267 26.6782ZM117.167 27.0042L117.229 27.0765L117.167 27.0042ZM116.646 30.9589L116.567 31.0043V31.005L116.646 30.9589ZM117.687 32.178L117.641 32.263L117.687 32.178ZM121.281 32.0504L121.228 31.9691V31.9696L121.281 32.0504ZM122.233 30.4628V30.3628H122.16L122.145 30.4416L122.233 30.4628ZM122.729 30.442C122.564 31.3076 122.183 31.97 121.584 32.4362L121.687 32.6001C122.325 32.1025 122.731 31.3946 122.905 30.4836L122.729 30.442ZM121.584 32.436C120.993 32.8947 120.262 33.1269 119.389 33.1269V33.3269C120.292 33.3269 121.06 33.0866 121.687 32.6003L121.584 32.436ZM119.389 33.1269C118.741 33.1269 118.144 32.9832 117.599 32.697L117.522 32.878C118.094 33.1776 118.716 33.3269 119.389 33.3269V33.1269ZM117.599 32.6972C117.064 32.4123 116.632 31.9899 116.302 31.4286L116.152 31.5382C116.499 32.1298 116.956 32.5768 117.521 32.8777L117.599 32.6972ZM116.302 31.4286C115.975 30.8706 115.809 30.2099 115.809 29.4422H115.63C115.63 30.2433 115.803 30.9433 116.152 31.5382L116.302 31.4286ZM115.809 29.4422C115.809 28.2945 116.144 27.3772 116.809 26.6802L116.687 26.5344C115.981 27.2738 115.63 28.2464 115.63 29.4422H115.809ZM116.809 26.6798C117.476 25.9722 118.333 25.6158 119.389 25.6158V25.4158C118.294 25.4158 117.391 25.7871 116.686 26.5348L116.809 26.6798ZM119.389 25.6158C120.27 25.6158 121.018 25.8571 121.635 26.3351L121.738 26.1707C121.086 25.666 120.301 25.4158 119.389 25.4158V25.6158ZM121.636 26.3354C122.263 26.8146 122.59 27.3807 122.639 28.033L122.817 28.0166C122.763 27.2892 122.397 26.674 121.738 26.1704L121.636 26.3354ZM122.727 27.9248H122.143V28.1248H122.727V27.9248ZM122.233 28.0135C122.178 27.4727 121.863 27.0011 121.317 26.595L121.218 26.7614C121.738 27.149 122.008 27.5752 122.055 28.036L122.233 28.0135ZM121.317 26.595C120.768 26.1858 120.124 25.9828 119.389 25.9828V26.1828C120.093 26.1828 120.701 26.3767 121.218 26.7614L121.317 26.595ZM119.389 25.9828C118.463 25.9828 117.7 26.2974 117.105 26.9319L117.229 27.0765C117.785 26.4825 118.502 26.1828 119.389 26.1828V25.9828ZM117.105 26.9319C116.509 27.5677 116.214 28.4079 116.214 29.4422H116.393C116.393 28.4543 116.673 27.6692 117.229 27.0765L117.105 26.9319ZM116.214 29.4422C116.214 29.9699 116.332 30.4909 116.567 31.0043L116.726 30.9135C116.503 30.4253 116.393 29.9352 116.393 29.4422H116.214ZM116.567 31.005C116.803 31.5141 117.162 31.9333 117.641 32.263L117.735 32.0929C117.281 31.7801 116.946 31.3866 116.726 30.9129L116.567 31.005ZM117.641 32.263C118.123 32.596 118.707 32.7599 119.389 32.7599V32.5599C118.732 32.5599 118.183 32.4025 117.735 32.0929L117.641 32.263ZM119.389 32.7599C120.165 32.7599 120.815 32.5527 121.333 32.1312L121.228 31.9696C120.747 32.3608 120.136 32.5599 119.389 32.5599V32.7599ZM121.333 32.1317C121.858 31.7116 122.188 31.1615 122.32 30.4841L122.145 30.4416C122.023 31.0682 121.719 31.5765 121.228 31.9691L121.333 32.1317ZM122.233 30.5628H122.817V30.3628H122.233V30.5628ZM130.782 33.0284L130.816 33.1208L130.871 33.0951V33.0284H130.782ZM130.451 33.1135L130.445 33.0135L130.438 33.0145L130.451 33.1135ZM129.474 32.8867L129.541 32.8203L129.474 32.8867ZM129.27 31.5543H129.36V31.4543H129.27V31.5543ZM129.245 31.5543V31.4543H129.193L129.167 31.506L129.245 31.5543ZM128.051 32.8017L128.091 32.8917L128.051 32.8017ZM124.128 32.6599L124.073 32.7379L124.074 32.7392L124.128 32.6599ZM124.052 29.5698L123.996 29.4927L123.995 29.4934L124.052 29.5698ZM125.906 28.9319L125.9 28.8322L125.906 28.9319ZM128.204 28.7618L128.202 28.6618L128.198 28.6621L128.204 28.7618ZM128.966 28.5634L129.019 28.6445L129.021 28.6423L128.966 28.5634ZM128.61 26.4655L128.565 26.5518L128.566 26.5526L128.61 26.4655ZM124.357 27.9822V28.0822H124.435L124.446 27.9956L124.357 27.9822ZM123.773 27.9822L123.684 27.971L123.672 28.0822H123.773V27.9822ZM124.624 26.0686L124.674 26.1514L124.675 26.1512L124.624 26.0686ZM129.081 26.0261L129.03 26.1093L129.031 26.1098L129.081 26.0261ZM129.867 32.4331L129.94 32.3758L129.867 32.4331ZM130.782 32.4615H130.871V32.3227L130.753 32.3666L130.782 32.4615ZM129.194 28.9461H129.284V28.8461H129.194V28.9461ZM129.169 28.9461V28.8461H129.128L129.101 28.8808L129.169 28.9461ZM128.141 29.3288L128.147 29.4286L128.148 29.4285L128.141 29.3288ZM125.804 29.5131L125.81 29.6129L125.804 29.5131ZM126.186 32.6599L126.185 32.7599H126.186V32.6599ZM128.343 32.0079L128.394 32.0903L128.343 32.0079ZM130.747 32.9361C130.655 32.9789 130.555 33.005 130.445 33.0138L130.458 33.2132C130.585 33.2031 130.704 33.1725 130.816 33.1208L130.747 32.9361ZM130.438 33.0145C130.325 33.0327 130.202 33.0418 130.07 33.0418V33.2418C130.209 33.2418 130.341 33.2321 130.464 33.2125L130.438 33.0145ZM130.07 33.0418C129.826 33.0418 129.655 32.9632 129.541 32.8203L129.407 32.9531C129.563 33.1503 129.79 33.2418 130.07 33.2418V33.0418ZM129.541 32.8203C129.487 32.7537 129.442 32.6418 129.409 32.4725C129.377 32.3046 129.36 32.0889 129.36 31.8236H129.181C129.181 32.0969 129.198 32.3277 129.234 32.5142C129.27 32.6993 129.324 32.8497 129.407 32.9531L129.541 32.8203ZM129.36 31.8236V31.5543H129.181V31.8236H129.36ZM129.27 31.4543H129.245V31.6543H129.27V31.4543ZM129.167 31.506C128.905 32.0352 128.522 32.4368 128.013 32.7116L128.091 32.8917C128.632 32.5995 129.044 32.1695 129.323 31.6026L129.167 31.506ZM128.013 32.7116C127.503 32.987 126.883 33.1269 126.147 33.1269V33.3269C126.902 33.3269 127.551 33.1833 128.091 32.8917L128.013 32.7116ZM126.147 33.1269C125.25 33.1269 124.6 32.939 124.183 32.5806L124.074 32.7392C124.537 33.1368 125.234 33.3269 126.147 33.3269V33.1269ZM124.185 32.582C123.777 32.2164 123.57 31.6991 123.57 31.0156H123.391C123.391 31.7497 123.617 32.3285 124.073 32.7378L124.185 32.582ZM123.57 31.0156C123.57 30.4374 123.751 29.9845 124.11 29.6462L123.995 29.4934C123.592 29.8733 123.391 30.3843 123.391 31.0156H123.57ZM124.109 29.6469C124.478 29.3074 125.073 29.0973 125.912 29.0317L125.9 28.8322C125.046 28.8989 124.406 29.114 123.996 29.4927L124.109 29.6469ZM125.912 29.0317L128.21 28.8616L128.198 28.6621L125.9 28.8322L125.912 29.0317ZM128.206 28.8618C128.566 28.8523 128.843 28.7857 129.018 28.6445L128.913 28.4823C128.784 28.5868 128.553 28.6525 128.202 28.6619L128.206 28.8618ZM129.021 28.6423C129.209 28.479 129.284 28.1559 129.284 27.7271H129.105C129.105 28.1488 129.028 28.3832 128.911 28.4845L129.021 28.6423ZM129.284 27.7271C129.284 27.1039 129.078 26.6456 128.654 26.3785L128.566 26.5526C128.922 26.7768 129.105 27.1596 129.105 27.7271H129.284ZM128.656 26.3793C128.246 26.1104 127.621 25.9828 126.795 25.9828V26.1828C127.611 26.1828 128.197 26.3103 128.565 26.5518L128.656 26.3793ZM126.795 25.9828C125.993 25.9828 125.387 26.1249 124.993 26.4254L125.093 26.5907C125.443 26.3243 126.005 26.1828 126.795 26.1828V25.9828ZM124.993 26.4254C124.591 26.7305 124.355 27.2531 124.268 27.9688L124.446 27.9956C124.529 27.3128 124.749 26.8526 125.093 26.5907L124.993 26.4254ZM124.357 27.8822H123.773V28.0822H124.357V27.8822ZM123.862 27.9935C123.954 27.0927 124.229 26.4879 124.674 26.1514L124.573 25.9859C124.07 26.3676 123.779 27.0385 123.684 27.971L123.862 27.9935ZM124.675 26.1512C125.135 25.7992 125.837 25.6158 126.795 25.6158V25.4158C125.822 25.4158 125.078 25.601 124.573 25.9861L124.675 26.1512ZM126.795 25.6158C127.858 25.6158 128.597 25.7863 129.03 26.1093L129.13 25.9429C128.65 25.5855 127.865 25.4158 126.795 25.4158V25.6158ZM129.031 26.1098C129.468 26.4287 129.689 26.9189 129.689 27.5995H129.868C129.868 26.8626 129.624 26.304 129.129 25.9424L129.031 26.1098ZM129.689 27.5995V31.7811H129.868V27.5995H129.689ZM129.689 31.7811C129.689 31.9538 129.696 32.0987 129.712 32.2143C129.727 32.3268 129.752 32.4237 129.794 32.4905L129.94 32.3758C129.923 32.348 129.904 32.289 129.889 32.1842C129.875 32.0824 129.868 31.9485 129.868 31.7811H129.689ZM129.794 32.4905C129.879 32.6252 130.03 32.6749 130.21 32.6749V32.4749C130.052 32.4749 129.974 32.43 129.94 32.3758L129.794 32.4905ZM130.21 32.6749C130.399 32.6749 130.6 32.6347 130.81 32.5563L130.753 32.3666C130.558 32.4395 130.377 32.4749 130.21 32.4749V32.6749ZM130.692 32.4615V33.0284H130.871V32.4615H130.692ZM129.194 28.8461H129.169V29.0461H129.194V28.8461ZM129.101 28.8808C129.035 28.9661 128.926 29.0423 128.763 29.1029C128.6 29.1632 128.392 29.2059 128.134 29.2292L128.148 29.4285C128.414 29.4045 128.639 29.3598 128.82 29.2926C129 29.2256 129.142 29.134 129.236 29.0115L129.101 28.8808ZM128.135 29.2291L125.798 29.4134L125.81 29.6129L128.147 29.4286L128.135 29.2291ZM125.799 29.4133C125.21 29.4565 124.755 29.6056 124.445 29.8734C124.13 30.1452 123.975 30.5306 123.975 31.0156H124.154C124.154 30.584 124.289 30.2606 124.555 30.0316C124.824 29.7986 125.239 29.6548 125.81 29.6129L125.799 29.4133ZM123.975 31.0156C123.975 31.5868 124.163 32.0285 124.544 32.3239C124.919 32.6147 125.471 32.7551 126.185 32.7599L126.186 32.5599C125.487 32.5552 124.978 32.4169 124.646 32.1596C124.321 31.9069 124.154 31.5312 124.154 31.0156H123.975ZM126.186 32.7599C127.071 32.7599 127.809 32.5392 128.394 32.0903L128.293 31.9254C127.744 32.346 127.044 32.5599 126.186 32.5599V32.7599ZM128.394 32.0903C128.983 31.6394 129.284 31.048 129.284 30.3211H129.105C129.105 30.9738 128.839 31.5069 128.293 31.9254L128.394 32.0903ZM129.284 30.3211V28.9461H129.105V30.3211H129.284ZM131.439 33.0001H131.349V33.1001H131.439V33.0001ZM131.439 22.8793V22.7793H131.349V22.8793H131.439ZM132.023 22.8793H132.113V22.7793H132.023V22.8793ZM132.023 33.0001V33.1001H132.113V33.0001H132.023ZM131.529 33.0001V22.8793H131.349V33.0001H131.529ZM131.439 22.9793H132.023V22.7793H131.439V22.9793ZM131.933 22.8793V33.0001H132.113V22.8793H131.933ZM132.023 32.9001H131.439V33.1001H132.023V32.9001ZM85.5299 47.0001L85.4454 47.0335L85.4665 47.1001H85.5299V47.0001ZM82.6097 37.7865L82.6941 37.7531L82.673 37.6865H82.6097V37.7865ZM82.5843 37.7865V37.6865H82.521L82.4999 37.7531L82.5843 37.7865ZM79.6641 47.0001V47.1001H79.7275L79.7486 47.0335L79.6641 47.0001ZM78.9277 47.0001L78.8427 47.0314L78.8629 47.1001H78.9277V47.0001ZM75.9441 36.8793V36.7793H75.8203L75.859 36.9106L75.9441 36.8793ZM76.6043 36.8793L76.6894 36.8483L76.6693 36.7793H76.6043V36.8793ZM79.2959 46.0929L79.2107 46.1239L79.2309 46.1929H79.2959V46.0929ZM79.3214 46.0929V46.1929H79.3848L79.4058 46.1261L79.3214 46.0929ZM82.2288 36.8793V36.7793H82.1654L82.1444 36.8461L82.2288 36.8793ZM82.9652 36.8793L83.0496 36.8461L83.0286 36.7793H82.9652V36.8793ZM85.8726 46.0929L85.7882 46.1261L85.8092 46.1929H85.8726V46.0929ZM85.8981 46.0929V46.1929H85.9631L85.9833 46.1239L85.8981 46.0929ZM88.5897 36.8793V36.7793H88.5247L88.5046 36.8483L88.5897 36.8793ZM89.2499 36.8793L89.335 36.9106L89.3737 36.7793H89.2499V36.8793ZM86.2663 47.0001V47.1001H86.3311L86.3513 47.0314L86.2663 47.0001ZM85.6143 46.9667L82.6941 37.7531L82.5253 37.8199L85.4454 47.0335L85.6143 46.9667ZM82.6097 37.6865H82.5843V37.8865H82.6097V37.6865ZM82.4999 37.7531L79.5797 46.9667L79.7486 47.0335L82.6687 37.8199L82.4999 37.7531ZM79.6641 46.9001H78.9277V47.1001H79.6641V46.9001ZM79.0128 46.9688L76.0292 36.8481L75.859 36.9106L78.8427 47.0314L79.0128 46.9688ZM75.9441 36.9793H76.6043V36.7793H75.9441V36.9793ZM76.5191 36.9103L79.2107 46.1239L79.3811 46.0619L76.6894 36.8483L76.5191 36.9103ZM79.2959 46.1929H79.3214V45.9929H79.2959V46.1929ZM79.4058 46.1261L82.3133 36.9126L82.1444 36.8461L79.2368 46.0597L79.4058 46.1261ZM82.2288 36.9793H82.9652V36.7793H82.2288V36.9793ZM82.8807 36.9126L85.7882 46.1261L85.9572 46.0597L83.0496 36.8461L82.8807 36.9126ZM85.8726 46.1929H85.8981V45.9929H85.8726V46.1929ZM85.9833 46.1239L88.6749 36.9103L88.5046 36.8483L85.8129 46.0619L85.9833 46.1239ZM88.5897 36.9793H89.2499V36.7793H88.5897V36.9793ZM89.1648 36.8481L86.1812 46.9688L86.3513 47.0314L89.335 36.9106L89.1648 36.8481ZM86.2663 46.9001H85.5299V47.1001H86.2663V46.9001ZM89.5419 47.0001H89.4523V47.1001H89.5419V47.0001ZM89.5419 39.7426V39.6426H89.4523V39.7426H89.5419ZM90.1263 39.7426H90.2159V39.6426H90.1263V39.7426ZM90.1263 41.4578H90.0368V41.5578H90.1263V41.4578ZM90.1514 41.4578V41.5578H90.2123L90.2347 41.4939L90.1514 41.4578ZM91.1797 40.0119L91.1313 39.9276L91.1797 40.0119ZM93.084 39.5442L93.0625 39.6419L93.0732 39.6434L93.084 39.5442ZM93.3258 39.6009H93.4154V39.5245L93.3491 39.5044L93.3258 39.6009ZM93.3258 40.2529L93.2998 40.3487L93.4154 40.3873V40.2529H93.3258ZM93.0463 40.1962L93.0302 40.2951L93.0383 40.2959L93.0463 40.1962ZM90.8366 40.9758L90.9011 41.0459L90.8366 40.9758ZM90.1263 47.0001V47.1001H90.2159V47.0001H90.1263ZM89.6319 47.0001V39.7426H89.4523V47.0001H89.6319ZM89.5419 39.8426H90.1263V39.6426H89.5419V39.8426ZM90.0368 39.7426V41.4578H90.2159V39.7426H90.0368ZM90.1263 41.5578H90.1514V41.3578H90.1263V41.5578ZM90.2347 41.4939C90.4488 40.8785 90.7802 40.4144 91.2281 40.0963L91.1313 39.9276C90.6485 40.2709 90.2938 40.7707 90.0681 41.4216L90.2347 41.4939ZM91.2281 40.0963C91.6768 39.7772 92.2098 39.6158 92.8305 39.6158V39.4158C92.1811 39.4158 91.6132 39.5852 91.1313 39.9276L91.2281 40.0963ZM92.8305 39.6158C92.9272 39.6158 93.0042 39.6249 93.0625 39.6412L93.1064 39.4472C93.0284 39.4256 92.9362 39.4158 92.8305 39.4158V39.6158ZM93.0732 39.6434C93.135 39.6521 93.2112 39.6698 93.3016 39.6974L93.3491 39.5044C93.2533 39.4753 93.1682 39.4552 93.0956 39.4449L93.0732 39.6434ZM93.2362 39.6009V40.2529H93.4154V39.6009H93.2362ZM93.3509 40.1571C93.2595 40.1265 93.1601 40.1065 93.0535 40.0966L93.0383 40.2959C93.135 40.3048 93.2219 40.3226 93.2998 40.3487L93.3509 40.1571ZM93.0625 40.0978C92.9613 40.0773 92.8233 40.0679 92.6522 40.0679V40.2679C92.8197 40.2679 92.9451 40.2773 93.0302 40.2946L93.0625 40.0978ZM92.6522 40.0679C91.8945 40.0679 91.2657 40.3462 90.773 40.9057L90.9011 41.0459C91.3561 40.5282 91.9375 40.2679 92.6522 40.2679V40.0679ZM90.773 40.9057C90.2804 41.4655 90.0368 42.1864 90.0368 43.0595H90.2159C90.2159 42.2316 90.4452 41.5634 90.9011 41.0459L90.773 40.9057ZM90.0368 43.0595V47.0001H90.2159V43.0595H90.0368ZM90.1263 46.9001H89.5419V47.1001H90.1263V46.9001ZM94.0567 38.3818H93.9671V38.4818H94.0567V38.3818ZM94.0567 36.8793V36.7793H93.9671V36.8793H94.0567ZM94.6407 36.8793H94.7303V36.7793H94.6407V36.8793ZM94.6407 38.3818V38.4818H94.7303V38.3818H94.6407ZM94.0567 47.0001H93.9671V47.1001H94.0567V47.0001ZM94.0567 39.7426V39.6426H93.9671V39.7426H94.0567ZM94.6407 39.7426H94.7303V39.6426H94.6407V39.7426ZM94.6407 47.0001V47.1001H94.7303V47.0001H94.6407ZM94.1463 38.3818V36.8793H93.9671V38.3818H94.1463ZM94.0567 36.9793H94.6407V36.7793H94.0567V36.9793ZM94.5511 36.8793V38.3818H94.7303V36.8793H94.5511ZM94.6407 38.2818H94.0567V38.4818H94.6407V38.2818ZM94.1463 47.0001V39.7426H93.9671V47.0001H94.1463ZM94.0567 39.8426H94.6407V39.6426H94.0567V39.8426ZM94.5511 39.7426V47.0001H94.7303V39.7426H94.5511ZM94.6407 46.9001H94.0567V47.1001H94.6407V46.9001ZM99.3252 47.0568L99.344 47.1547L99.4148 47.1379V47.0568H99.3252ZM98.8935 47.1277L98.8881 47.0279L98.8935 47.1277ZM97.0779 46.7733L97.0134 46.8427L97.0152 46.844L97.0779 46.7733ZM96.7483 40.3096H96.8379V40.2096H96.7483V40.3096ZM95.2758 40.3096H95.1862V40.4096H95.2758V40.3096ZM95.2758 39.7426V39.6426H95.1862V39.7426H95.2758ZM96.7483 39.7426V39.8426H96.8379V39.7426H96.7483ZM96.7483 37.2904V37.1904H96.6587V37.2904H96.7483ZM97.3323 37.2904H97.4219V37.1904H97.3323V37.2904ZM97.3323 39.7426H97.2427V39.8426H97.3323V39.7426ZM99.2616 39.7426H99.3512V39.6426H99.2616V39.7426ZM99.2616 40.3096V40.4096H99.3512V40.3096H99.2616ZM97.3323 40.3096V40.2096H97.2427V40.3096H97.3323ZM97.6368 46.3906L97.592 46.4771L97.5956 46.4793L97.6368 46.3906ZM99.3252 46.4898H99.4148V46.3749L99.3127 46.3908L99.3252 46.4898ZM99.3073 46.9589C99.1497 46.996 99.0099 47.0188 98.8881 47.0279L98.8998 47.2275C99.0323 47.2176 99.1801 47.1932 99.344 47.1547L99.3073 46.9589ZM98.8881 47.0279C98.7636 47.0371 98.58 47.0418 98.3355 47.0418V47.2418C98.5809 47.2418 98.7699 47.2371 98.8998 47.2275L98.8881 47.0279ZM98.3355 47.0418C97.721 47.0418 97.3341 46.918 97.1415 46.7026L97.0152 46.844C97.2624 47.12 97.7139 47.2418 98.3355 47.2418V47.0418ZM97.1424 46.7039C97.0484 46.5941 96.9704 46.4206 96.9176 46.1725C96.8647 45.9252 96.8379 45.6111 96.8379 45.2283H96.6587C96.6587 45.6203 96.6865 45.9512 96.7438 46.2189C96.8002 46.4858 96.888 46.6974 97.0134 46.8427L97.1424 46.7039ZM96.8379 45.2283V40.3096H96.6587V45.2283H96.8379ZM96.7483 40.2096H95.2758V40.4096H96.7483V40.2096ZM95.3653 40.3096V39.7426H95.1862V40.3096H95.3653ZM95.2758 39.8426H96.7483V39.6426H95.2758V39.8426ZM96.8379 39.7426V37.2904H96.6587V39.7426H96.8379ZM96.7483 37.3904H97.3323V37.1904H96.7483V37.3904ZM97.2427 37.2904V39.7426H97.4219V37.2904H97.2427ZM97.3323 39.8426H99.2616V39.6426H97.3323V39.8426ZM99.1721 39.7426V40.3096H99.3512V39.7426H99.1721ZM99.2616 40.2096H97.3323V40.4096H99.2616V40.2096ZM97.2427 40.3096V45.5401H97.4219V40.3096H97.2427ZM97.2427 45.5401C97.2427 45.9861 97.3466 46.3172 97.592 46.477L97.6816 46.3042C97.5213 46.1994 97.4219 45.9635 97.4219 45.5401H97.2427ZM97.5956 46.4793C97.8249 46.6126 98.1331 46.6749 98.5128 46.6749V46.4749C98.1474 46.4749 97.8715 46.4143 97.678 46.3019L97.5956 46.4793ZM98.5128 46.6749C98.6973 46.6749 98.9732 46.6457 99.3378 46.5888L99.3127 46.3908C98.9499 46.4474 98.6839 46.4749 98.5128 46.4749V46.6749ZM99.2357 46.4898V47.0568H99.4148V46.4898H99.2357ZM100.169 38.3818H100.079V38.4818H100.169V38.3818ZM100.169 36.8793V36.7793H100.079V36.8793H100.169ZM100.753 36.8793H100.843V36.7793H100.753V36.8793ZM100.753 38.3818V38.4818H100.843V38.3818H100.753ZM100.169 47.0001H100.079V47.1001H100.169V47.0001ZM100.169 39.7426V39.6426H100.079V39.7426H100.169ZM100.753 39.7426H100.843V39.6426H100.753V39.7426ZM100.753 47.0001V47.1001H100.843V47.0001H100.753ZM100.259 38.3818V36.8793H100.079V38.3818H100.259ZM100.169 36.9793H100.753V36.7793H100.169V36.9793ZM100.663 36.8793V38.3818H100.843V36.8793H100.663ZM100.753 38.2818H100.169V38.4818H100.753V38.2818ZM100.259 47.0001V39.7426H100.079V47.0001H100.259ZM100.169 39.8426H100.753V39.6426H100.169V39.8426ZM100.663 39.7426V47.0001H100.843V39.7426H100.663ZM100.753 46.9001H100.169V47.1001H100.753V46.9001ZM107.978 47.0001H107.888V47.1001H107.978V47.0001ZM107.394 40.6782L107.332 40.7513L107.334 40.7528L107.394 40.6782ZM103.559 40.8057L103.501 40.7295L103.5 40.7301L103.559 40.8057ZM102.81 47.0001V47.1001H102.899V47.0001H102.81ZM102.226 47.0001H102.136V47.1001H102.226V47.0001ZM102.226 39.7426V39.6426H102.136V39.7426H102.226ZM102.81 39.7426H102.899V39.6426H102.81V39.7426ZM102.81 41.1884H102.72V41.2884H102.81V41.1884ZM102.836 41.1884V41.2884H102.888L102.914 41.2361L102.836 41.1884ZM103.952 39.9411L103.994 40.0299L103.995 40.0292L103.952 39.9411ZM107.838 40.2387L107.897 40.1642L107.838 40.2387ZM108.562 47.0001V47.1001H108.651V47.0001H108.562ZM108.067 47.0001V42.5634H107.888V47.0001H108.067ZM108.067 42.5634C108.067 41.6797 107.869 41.0177 107.453 40.6035L107.334 40.7528C107.697 41.1135 107.888 41.7084 107.888 42.5634H108.067ZM107.455 40.6051C107.05 40.183 106.413 39.9828 105.565 39.9828V40.1828C106.393 40.1828 106.975 40.3796 107.332 40.7513L107.455 40.6051ZM105.565 39.9828C104.72 39.9828 104.029 40.2287 103.501 40.7295L103.617 40.8819C104.105 40.4188 104.751 40.1828 105.565 40.1828V39.9828ZM103.5 40.7301C102.979 41.2338 102.72 41.9247 102.72 42.7902H102.899C102.899 41.9736 103.141 41.3415 103.617 40.8814L103.5 40.7301ZM102.72 42.7902V47.0001H102.899V42.7902H102.72ZM102.81 46.9001H102.226V47.1001H102.81V46.9001ZM102.315 47.0001V39.7426H102.136V47.0001H102.315ZM102.226 39.8426H102.81V39.6426H102.226V39.8426ZM102.72 39.7426V41.1884H102.899V39.7426H102.72ZM102.81 41.2884H102.836V41.0884H102.81V41.2884ZM102.914 41.2361C103.177 40.695 103.537 40.2941 103.994 40.0299L103.911 39.8523C103.42 40.1361 103.035 40.5668 102.757 41.1408L102.914 41.2361ZM103.995 40.0292C104.454 39.7545 104.981 39.6158 105.578 39.6158V39.4158C104.956 39.4158 104.399 39.5607 103.91 39.8529L103.995 40.0292ZM105.578 39.6158C106.592 39.6158 107.319 39.855 107.778 40.3133L107.897 40.1642C107.391 39.6586 106.612 39.4158 105.578 39.4158V39.6158ZM107.778 40.3133C108.236 40.7708 108.472 41.4533 108.472 42.3791H108.651C108.651 41.415 108.404 40.6705 107.897 40.1642L107.778 40.3133ZM108.472 42.3791V47.0001H108.651V42.3791H108.472ZM108.562 46.9001H107.978V47.1001H108.562V46.9001ZM116.209 45.1716H116.299V45.0716H116.209V45.1716ZM116.183 45.1716V45.0716H116.13L116.104 45.1246L116.183 45.1716ZM114.99 46.4898L115.03 46.5796L115.031 46.579L114.99 46.4898ZM110.559 45.9228L110.497 45.9954L110.498 45.9964L110.559 45.9228ZM110.572 40.5081L110.632 40.5821L110.572 40.5081ZM115.028 39.9411L114.988 40.0308L114.989 40.0311L115.028 39.9411ZM116.183 41.2026L116.103 41.2467L116.116 41.277L116.143 41.2921L116.183 41.2026ZM116.209 41.2168L116.169 41.3062L116.299 41.3786V41.2168H116.209ZM116.209 39.7426V39.6426H116.12V39.7426H116.209ZM116.793 39.7426H116.883V39.6426H116.793V39.7426ZM115.93 49.2397L115.87 49.1653L115.869 49.1658L115.93 49.2397ZM110.864 49.5516L110.817 49.6367L110.864 49.5516ZM109.873 47.6805V47.5805H109.77L109.784 47.6945L109.873 47.6805ZM110.457 47.6805L110.546 47.6663L110.535 47.5805H110.457V47.6805ZM111.27 49.1121L111.226 49.1989V49.1993L111.27 49.1121ZM110.965 45.5401L110.903 45.6126L110.905 45.6137L110.965 45.5401ZM115.409 45.4976L115.348 45.4252L115.347 45.4257L115.409 45.4976ZM115.396 40.8908L115.336 40.9649L115.337 40.966L115.396 40.8908ZM111.016 40.9333L111.076 41.0073L111.016 40.9333ZM116.209 45.0716H116.183V45.2716H116.209V45.0716ZM116.104 45.1246C115.833 45.6928 115.449 46.1173 114.949 46.4007L115.031 46.579C115.563 46.2764 115.975 45.8221 116.262 45.2185L116.104 45.1246ZM114.951 46.4001C114.449 46.6753 113.846 46.8151 113.136 46.8151V47.0151C113.866 47.0151 114.498 46.8713 115.03 46.5795L114.951 46.4001ZM113.136 46.8151C112.078 46.8151 111.243 46.4901 110.619 45.8493L110.498 45.9964C111.162 46.6786 112.044 47.0151 113.136 47.0151V46.8151ZM110.62 45.8502C110.007 45.2017 109.697 44.3135 109.697 43.1729H109.517C109.517 44.357 109.842 45.302 110.497 45.9954L110.62 45.8502ZM109.697 43.1729C109.697 42.0716 110.01 41.2121 110.632 40.5821L110.512 40.434C109.846 41.1081 109.517 42.0251 109.517 43.1729H109.697ZM110.632 40.5821C111.264 39.9407 112.1 39.6158 113.149 39.6158V39.4158C112.065 39.4158 111.183 39.7525 110.512 40.4341L110.632 40.5821ZM113.149 39.6158C113.875 39.6158 114.488 39.7557 114.988 40.0308L115.067 39.8513C114.536 39.5595 113.896 39.4158 113.149 39.4158V39.6158ZM114.989 40.0311C115.497 40.3054 115.867 40.7102 116.103 41.2467L116.264 41.1585C116.01 40.5799 115.609 40.1438 115.067 39.8511L114.989 40.0311ZM116.143 41.2921L116.169 41.3062L116.249 41.1274L116.224 41.1132L116.143 41.2921ZM116.299 41.2168V39.7426H116.12V41.2168H116.299ZM116.209 39.8426H116.793V39.6426H116.209V39.8426ZM116.704 39.7426V46.7024H116.883V39.7426H116.704ZM116.704 46.7024C116.704 47.7979 116.422 48.613 115.87 49.1653L115.989 49.3141C116.589 48.7136 116.883 47.8371 116.883 46.7024H116.704ZM115.869 49.1658C115.317 49.7276 114.447 50.0185 113.238 50.0185V50.2185C114.467 50.2185 115.391 49.9236 115.99 49.3136L115.869 49.1658ZM113.238 50.0185C112.213 50.0185 111.441 49.8305 110.91 49.4664L110.817 49.6367C111.387 50.0286 112.197 50.2185 113.238 50.2185V50.0185ZM110.91 49.4664C110.388 49.1074 110.069 48.5134 109.962 47.6665L109.784 47.6945C109.897 48.5863 110.239 49.2397 110.817 49.6367L110.91 49.4664ZM109.873 47.7805H110.457V47.5805H109.873V47.7805ZM110.368 47.6946C110.457 48.3819 110.741 48.8884 111.226 49.1989L111.314 49.0254C110.885 48.75 110.627 48.302 110.546 47.6663L110.368 47.6946ZM111.226 49.1993C111.71 49.5042 112.385 49.6516 113.238 49.6516V49.4516C112.399 49.4516 111.76 49.306 111.314 49.025L111.226 49.1993ZM113.238 49.6516C114.239 49.6516 115.006 49.4143 115.524 48.9225C116.044 48.4281 116.299 47.6911 116.299 46.7308H116.12C116.12 47.651 115.878 48.3243 115.409 48.7702C114.936 49.2187 114.217 49.4516 113.238 49.4516V49.6516ZM116.299 46.7308V45.1716H116.12V46.7308H116.299ZM110.101 43.1446C110.101 44.2118 110.364 45.0401 110.903 45.6126L111.027 45.4676C110.533 44.9439 110.281 44.1752 110.281 43.1446H110.101ZM110.905 45.6137C111.451 46.1747 112.225 46.4481 113.212 46.4481V46.2481C112.253 46.2481 111.529 45.9828 111.026 45.4665L110.905 45.6137ZM113.212 46.4481C114.168 46.4481 114.926 46.1592 115.471 45.5694L115.347 45.4257C114.843 45.9699 114.136 46.2481 113.212 46.2481V46.4481ZM115.47 45.57C116.026 44.9799 116.299 44.1622 116.299 43.1304H116.12C116.12 44.1209 115.859 44.8812 115.348 45.4252L115.47 45.57ZM116.299 43.1304C116.299 42.144 116.02 41.3675 115.455 40.8155L115.337 40.966C115.855 41.4725 116.12 42.1891 116.12 43.1304H116.299ZM115.456 40.8166C114.902 40.2562 114.124 39.9828 113.136 39.9828V40.1828C114.095 40.1828 114.825 40.4481 115.336 40.9649L115.456 40.8166ZM113.136 39.9828C112.262 39.9828 111.533 40.2734 110.956 40.8593L111.076 41.0073C111.616 40.4593 112.3 40.1828 113.136 40.1828V39.9828ZM110.956 40.8593C110.385 41.4379 110.101 42.203 110.101 43.1446H110.281C110.281 42.2528 110.547 41.5438 111.076 41.0073L110.956 40.8593Z" fill="#171717"/>
</svg>
